<svg xmlns="http://www.w3.org/2000/svg" xmlns:xlink="http://www.w3.org/1999/xlink" width="51.938" height="51.784" viewBox="0 0 51.938 51.784"><defs><linearGradient id="linear-gradient" x1=".5" x2=".5" y2="1" gradientUnits="objectBoundingBox"><stop offset="0" stop-color="#4bdba4"/><stop offset="1" stop-color="#4bdb80"/></linearGradient></defs><g id="burger" transform="translate(0 -0.756)"><g id="Group_12" data-name="Group 12" transform="translate(0 0.756)"><path id="Path_2" fill="url(#linear-gradient)" d="M180.094,61.051a.761.761,0,0,0,.67-.4l.66-1.221a.761.761,0,0,0-1.338-.723l-.66,1.221a.761.761,0,0,0,.668,1.122Z" data-name="Path 2" transform="translate(-161.142 -52.471)"/><path id="Path_3" fill="url(#linear-gradient)" d="M249.933,59.636V58.249a.761.761,0,1,0-1.521,0v1.388a.761.761,0,1,0,1.521,0Z" data-name="Path 3" transform="translate(-223.213 -51.733)"/><path id="Path_4" fill="url(#linear-gradient)" d="M312.263,61.132a.761.761,0,0,0,.657-1.142l-.7-1.2a.761.761,0,0,0-1.316.763l.7,1.2A.761.761,0,0,0,312.263,61.132Z" data-name="Path 4" transform="translate(-279.277 -52.562)"/><path id="Path_5" fill="url(#linear-gradient)" d="M51.938,24.174V23.5a4.162,4.162,0,0,0-1.8-3.429,3.613,3.613,0,0,0,1.139-4.018A21.412,21.412,0,0,0,44.385,6.4C39.792,2.765,33.6.867,25.98.756h-.022a38.066,38.066,0,0,0-9.483,1.252.761.761,0,1,0,.4,1.467,36.541,36.541,0,0,1,9.091-1.2c16.455.242,22.018,9.055,23.869,14.287a2.075,2.075,0,0,1-1.95,2.775H4.049a2.056,2.056,0,0,1-1.7-.878A2.027,2.027,0,0,1,2.089,16.6,20,20,0,0,1,13.636,4.589a.761.761,0,1,0-.588-1.4,22.318,22.318,0,0,0-8.6,6.225,21.424,21.424,0,0,0-3.8,6.68,3.531,3.531,0,0,0,.457,3.25,3.591,3.591,0,0,0,.7.734A4.162,4.162,0,0,0,0,23.5v.67a4.171,4.171,0,0,0,3.324,4.079L3.309,32.8A4.171,4.171,0,0,0,0,36.87v.67a4.171,4.171,0,0,0,3.321,4.078,9.76,9.76,0,0,0,.437,3.545c1.244,3.9,4.613,5.75,7.22,6.621a15.043,15.043,0,0,0,4.772.756H36.188a15.042,15.042,0,0,0,4.772-.756c2.607-.87,5.976-2.725,7.22-6.621a9.76,9.76,0,0,0,.437-3.545,4.171,4.171,0,0,0,3.321-4.078v-.67a4.17,4.17,0,0,0-3.324-4.077v-4.54a4.171,4.171,0,0,0,3.324-4.079ZM1.521,37.54v-.67a2.646,2.646,0,0,1,1.782-2.5l0,.448a2.767,2.767,0,0,0,4.531,2.129,2.464,2.464,0,0,1,1.7-.622c.088,0,.17,0,.25.009v3.846H4.164A2.646,2.646,0,0,1,1.521,37.54Zm30.31-5.95H47.093v3.232a1.214,1.214,0,0,1-.709,1.122,1.231,1.231,0,0,1-1.335-.168,3.955,3.955,0,0,0-2.67-.968,4.63,4.63,0,0,0-3.209,1.248,3.248,3.248,0,0,1-4.529,0,4.631,4.631,0,0,0-3.209-1.248,4.688,4.688,0,0,0-3.209,1.248,3.248,3.248,0,0,1-4.529,0,4.688,4.688,0,0,0-3.209-1.248,4.631,4.631,0,0,0-3.209,1.248,3.716,3.716,0,0,1-1.445.825V32.6a1.009,1.009,0,0,1,1.008-1.008H28.264a.761.761,0,1,0,0-1.521H16.837A2.532,2.532,0,0,0,14.308,32.6v9.367a1.5,1.5,0,1,1-3,0V32.6a2.532,2.532,0,0,0-2.529-2.529H4.845V28.338H47.093v1.731H31.831a.761.761,0,1,0,0,1.521Zm-23.052,0A1.009,1.009,0,0,1,9.787,32.6v2.216c-.081,0-.164-.006-.25-.006a3.954,3.954,0,0,0-2.669.968,1.231,1.231,0,0,1-1.335.168,1.214,1.214,0,0,1-.709-1.122V31.591ZM46.731,44.7c-.843,2.639-2.946,4.537-6.253,5.641a13.521,13.521,0,0,1-4.29.678H15.75a13.521,13.521,0,0,1-4.29-.678C4.983,48.179,4.712,43.4,4.834,41.7H9.787v.261a3.021,3.021,0,1,0,6.043,0V41.7H47.1A8.217,8.217,0,0,1,46.731,44.7Zm3.685-7.831v.67a2.646,2.646,0,0,1-2.643,2.643H15.83v-1.75a4.833,4.833,0,0,0,2.39-1.185,3.248,3.248,0,0,1,4.529,0A4.688,4.688,0,0,0,25.957,38.5a4.63,4.63,0,0,0,3.209-1.248,3.248,3.248,0,0,1,4.529,0,4.749,4.749,0,0,0,6.418,0,3.184,3.184,0,0,1,2.265-.92,2.465,2.465,0,0,1,1.7.622,2.767,2.767,0,0,0,4.531-2.129v-.457A2.647,2.647,0,0,1,50.417,36.87ZM47.774,26.817H4.164a2.646,2.646,0,0,1-2.643-2.643V23.5a2.646,2.646,0,0,1,2.643-2.643H47.773A2.646,2.646,0,0,1,50.417,23.5v.67A2.646,2.646,0,0,1,47.774,26.817Z" data-name="Path 5" transform="translate(0 -0.756)"/></g></g></svg>