<svg xmlns="http://www.w3.org/2000/svg" xmlns:xlink="http://www.w3.org/1999/xlink" width="71.665" height="36.034" viewBox="0 0 71.665 36.034"><defs><linearGradient id="linear-gradient" x1=".5" x2=".5" y2="1" gradientUnits="objectBoundingBox"><stop offset="0" stop-color="#4bdba4"/><stop offset="1" stop-color="#4bdb80"/></linearGradient></defs><g id="sausage" transform="translate(0 -93.223)"><g id="Group_23" data-name="Group 23" transform="translate(0 93.223)"><path id="Path_21" fill="url(#linear-gradient)" d="M215.023,118.528l-1.779-7.293,1.779-7.292a3.877,3.877,0,0,0-4.915-4.625,14.905,14.905,0,0,0-5.846,3.475,18.033,18.033,0,0,0-15.909-9.569h-9.935a1.05,1.05,0,0,0,0,2.1h9.935a15.917,15.917,0,1,1,0,31.835h-1.361a1.05,1.05,0,0,0,0,2.1h1.361a18.033,18.033,0,0,0,15.913-9.576,14.907,14.907,0,0,0,5.842,3.471,3.9,3.9,0,0,0,1.171.182,3.887,3.887,0,0,0,3.743-4.806Zm-3.879-7.044,1.84,7.542a1.765,1.765,0,0,1-.515,1.725,1.741,1.741,0,0,1-1.73.4,12.967,12.967,0,0,1-5.544-3.509q.282-.739.5-1.508a8.859,8.859,0,0,0,2.068.8,1.05,1.05,0,1,0,.486-2.042,7.3,7.3,0,0,1-2.088-.9q.128-.834.177-1.691h.82a1.05,1.05,0,1,0,0-2.1h-.82q-.05-.857-.177-1.691a7.3,7.3,0,0,1,2.088-.9,1.05,1.05,0,0,0-.486-2.042,8.861,8.861,0,0,0-2.068.8q-.218-.773-.5-1.516a12.971,12.971,0,0,1,5.546-3.512,1.741,1.741,0,0,1,1.73.4,1.767,1.767,0,0,1,.516,1.727l-1.839,7.54a1.051,1.051,0,0,0,0,.5Z" data-name="Path 21" transform="translate(-143.472 -93.223)"/><path id="Path_22" fill="url(#linear-gradient)" d="M38.608,127.157H26.45a18.01,18.01,0,0,0,0-31.835h3.584a1.05,1.05,0,1,0,0-2.1H18.017a18.072,18.072,0,0,0-13.243,5.8,1.05,1.05,0,1,0,1.543,1.424A15.917,15.917,0,1,1,2.1,111.24a15.763,15.763,0,0,1,1.616-7,1.05,1.05,0,0,0-1.885-.924A17.847,17.847,0,0,0,0,111.24a18.037,18.037,0,0,0,18.017,18.017H38.608a1.05,1.05,0,1,0,0-2.1Z" data-name="Path 22" transform="translate(0 -93.223)"/><path id="Path_23" fill="url(#linear-gradient)" d="M114.116,147.973a3.878,3.878,0,1,0,3.878,3.878A3.882,3.882,0,0,0,114.116,147.973Zm0,5.656a1.778,1.778,0,1,1,1.778-1.778A1.78,1.78,0,0,1,114.116,153.629Z" data-name="Path 23" transform="translate(-89.171 -137.51)"/><path id="Path_24" fill="url(#linear-gradient)" d="M94.7,224.532a3.312,3.312,0,1,0,3.312-3.312A3.316,3.316,0,0,0,94.7,224.532Zm3.312-1.212a1.212,1.212,0,1,1-1.213,1.212A1.214,1.214,0,0,1,98.014,223.319Z" data-name="Path 24" transform="translate(-76.604 -196.759)"/><path id="Path_25" fill="url(#linear-gradient)" d="M65.46,122.818a3.312,3.312,0,1,0,3.312,3.312A3.316,3.316,0,0,0,65.46,122.818Zm0,4.525a1.212,1.212,0,1,1,1.213-1.212A1.214,1.214,0,0,1,65.46,127.343Z" data-name="Path 25" transform="translate(-50.271 -117.162)"/><path id="Path_26" fill="url(#linear-gradient)" d="M23.675,171.761a5.292,5.292,0,1,0,5.291-5.292A5.3,5.3,0,0,0,23.675,171.761Zm8.483,0a3.192,3.192,0,1,1-3.192-3.192A3.2,3.2,0,0,1,32.159,171.761Z" data-name="Path 26" transform="translate(-19.151 -152.472)"/><path id="Path_27" fill="url(#linear-gradient)" d="M139.625,200.026a1.7,1.7,0,0,0-1.7,1.7h0s0,.006,0,.01a1.7,1.7,0,0,0,3.393,0v0s0-.005,0-.008A1.7,1.7,0,0,0,139.625,200.026Z" data-name="Path 27" transform="translate(-111.569 -179.615)"/><path id="Path_28" fill="url(#linear-gradient)" d="M64.9,230.359a1.7,1.7,0,0,0-1.688,1.527,1.729,1.729,0,0,0-.01.18,1.7,1.7,0,1,0,1.7-1.707Z" data-name="Path 28" transform="translate(-51.124 -204.151)"/><path id="Path_29" fill="url(#linear-gradient)" d="M92.274,189.668a1.7,1.7,0,0,0-1.688,1.529,1.727,1.727,0,0,0-.009.177,1.7,1.7,0,0,0,3.385.166,1.733,1.733,0,0,0,.009-.176A1.7,1.7,0,0,0,92.274,189.668Z" data-name="Path 29" transform="translate(-73.267 -171.237)"/></g></g></svg>