<svg xmlns="http://www.w3.org/2000/svg" xmlns:xlink="http://www.w3.org/1999/xlink" width="27" height="42" viewBox="0 0 26.592 41.637"><defs><linearGradient id="linear-gradient" x1=".5" x2=".5" y2="1" gradientUnits="objectBoundingBox"><stop offset="0" stop-color="#4bdba4"/><stop offset="1" stop-color="#4bdb80"/></linearGradient></defs><g id="wheat" transform="translate(-92.501 0)"><path id="Path_53" fill="url(#linear-gradient)" d="M118.844,21.722a.816.816,0,0,0-.843-.658c-.086,0-.172.011-.258.017a13.807,13.807,0,0,0,.164-7.644.814.814,0,0,0-.517-.559,13.827,13.827,0,0,0-.309-7.473V.813a.813.813,0,0,0-1.626,0V4.841a13.778,13.778,0,0,0-4.532,2.039A13.8,13.8,0,0,0,106.706.2a.813.813,0,0,0-1.069,0A13.725,13.725,0,0,0,101.3,7.342a13.777,13.777,0,0,0-5.145-2.5V.813a.813.813,0,1,0-1.626,0v4.54a13.825,13.825,0,0,0-.327,7.526.813.813,0,0,0-.517.559,13.807,13.807,0,0,0,.164,7.644c-.086-.006-.172-.013-.258-.017a.812.812,0,0,0-.843.658,13.745,13.745,0,0,0,12.234,16.284v2.816a.813.813,0,1,0,1.626,0V38.008a13.79,13.79,0,0,0,3.645-.849.813.813,0,0,0,.47-1.049.813.813,0,0,0-1.05-.47,12.184,12.184,0,0,1-2.962.721,12.286,12.286,0,0,1-.1-1.583,12.006,12.006,0,0,1,.855-4.474c.029-.073.236-.552.287-.659a12.206,12.206,0,0,1,1.431-2.317,12.035,12.035,0,0,1,7.487-4.479h.006c.228-.039.457-.073.689-.1a12.275,12.275,0,0,1,.1,1.583,12.009,12.009,0,0,1-2.4,7.221.813.813,0,0,0,.651,1.3.807.807,0,0,0,.653-.327,13.679,13.679,0,0,0,2.72-8.193,13.875,13.875,0,0,0-.249-2.61ZM95.938,13.081a12.177,12.177,0,0,1-.045-6.626,12.112,12.112,0,0,1,8.983,13.3q-.277-.493-.6-.967a13.761,13.761,0,0,0-8.343-5.712Zm10.778,6.679a12.112,12.112,0,0,1,8.983-13.3,12.177,12.177,0,0,1-.045,6.626,13.76,13.76,0,0,0-8.343,5.712q-.319.473-.6.966Zm-.545-17.839a12.153,12.153,0,0,1,3.351,6.066,13.694,13.694,0,0,0-3.725,5.55,13.683,13.683,0,0,0-3.09-4.939A12.079,12.079,0,0,1,106.171,1.921ZM95.092,14.566a12.117,12.117,0,0,1,9.89,11.149,13.735,13.735,0,0,0,0,1.528q-.028.449-.09.9a13.742,13.742,0,0,0-9.231-6.8,12.156,12.156,0,0,1-.568-6.77Zm9.788,21.8A12.12,12.12,0,0,1,94.23,22.749a12.12,12.12,0,0,1,10.65,13.613Zm7.591-13.81a13.81,13.81,0,0,0-5.77,5.585q-.062-.446-.09-.894a13.733,13.733,0,0,0,0-1.528,12.117,12.117,0,0,1,9.89-11.149,12.156,12.156,0,0,1-.568,6.768q-.386.08-.766.181A13.766,13.766,0,0,0,112.47,22.552Z" data-name="Path 53" transform="translate(0 0)"/><circle id="Ellipse_2" cx=".813" cy=".813" r=".813" fill="url(#linear-gradient)" data-name="Ellipse 2" transform="translate(112.341 33.818)"/></g></svg>