<svg xmlns="http://www.w3.org/2000/svg" width="34" height="33" viewBox="0 0 34 33">
  <g id="Group_26" data-name="Group 26" transform="translate(-56.321 -711.388)">
    <g id="Group_24" data-name="Group 24" transform="translate(56 711)">
      <g id="Group_7" data-name="Group 7" transform="translate(18.187 0)">
        <g id="Rectangle_6" data-name="Rectangle 6" transform="translate(0.134 0.388)" stroke-width="2">
          <path d="M4,0H16a0,0,0,0,1,0,0V11a4,4,0,0,1-4,4H4a4,4,0,0,1-4-4V4A4,4,0,0,1,4,0Z" stroke="none"/>
          <path d="M4,1H14a1,1,0,0,1,1,1v9a3,3,0,0,1-3,3H4a3,3,0,0,1-3-3V4A3,3,0,0,1,4,1Z" fill="none"/>
        </g>
      </g>
      <g id="Group_8" data-name="Group 8" transform="translate(0 0)">
        <g id="Rectangle_4" data-name="Rectangle 4" transform="translate(0.321 0.388)" stroke-width="2">
          <path d="M4,0H16a0,0,0,0,1,0,0V11a4,4,0,0,1-4,4H4a4,4,0,0,1-4-4V4A4,4,0,0,1,4,0Z" stroke="none"/>
          <path d="M4,1H14a1,1,0,0,1,1,1v9a3,3,0,0,1-3,3H4a3,3,0,0,1-3-3V4A3,3,0,0,1,4,1Z" fill="none"/>
        </g>
      </g>
    </g>
    <g id="Group_25" data-name="Group 25" transform="translate(56 729.187)">
      <g id="Group_7-2" data-name="Group 7" transform="translate(18.187 0)">
        <g id="Rectangle_4-2" data-name="Rectangle 4" transform="translate(0.134 0.201)" stroke-width="2">
          <path d="M4,0H16a0,0,0,0,1,0,0V11a4,4,0,0,1-4,4H4a4,4,0,0,1-4-4V4A4,4,0,0,1,4,0Z" stroke="none"/>
          <path d="M4,1H14a1,1,0,0,1,1,1v9a3,3,0,0,1-3,3H4a3,3,0,0,1-3-3V4A3,3,0,0,1,4,1Z" fill="none"/>
        </g>
      </g>
      <g id="Group_8-2" data-name="Group 8" transform="translate(0 0)">
        <g id="Rectangle_4-3" data-name="Rectangle 4" transform="translate(0.321 0.201)" stroke-width="2">
          <path d="M4,0H16a0,0,0,0,1,0,0V11a4,4,0,0,1-4,4H4a4,4,0,0,1-4-4V4A4,4,0,0,1,4,0Z" stroke="none"/>
          <path d="M4,1H14a1,1,0,0,1,1,1v9a3,3,0,0,1-3,3H4a3,3,0,0,1-3-3V4A3,3,0,0,1,4,1Z" fill="none"/>
        </g>
      </g>
    </g>
  </g>
</svg>
