<svg xmlns="http://www.w3.org/2000/svg" xmlns:xlink="http://www.w3.org/1999/xlink" width="39.517" height="72.115" viewBox="0 0 39.517 72.115"><defs><linearGradient id="linear-gradient" x1=".5" x2=".5" y2="1" gradientUnits="objectBoundingBox"><stop offset="0" stop-color="#4bdba4"/><stop offset="1" stop-color="#4bdb80"/></linearGradient></defs><g id="doner-kebab" transform="translate(-115.718 -0.001)"><path id="Path_33" fill="url(#linear-gradient)" d="M175.047,180.5a1.056,1.056,0,0,0-1.056,1.056v8.208c.142,1.737-2.111,7.911-2.53,9.647H161.047a3.39,3.39,0,1,0,0,6.78h8.38l-1.893,6.311a1.269,1.269,0,0,1-1.223.91H146.449a1.269,1.269,0,0,1-1.223-.91l-1.893-6.311h8.38a1.056,1.056,0,0,0,0-2.113H142.7l-.54-1.8a1.057,1.057,0,0,0-2.024.607c.51,1.711,2.52,8.393,3.067,10.225a3.364,3.364,0,0,0,2.788,2.383v2.517c.042,3.283,5,1.916,7,2.183.258,2.017-1.089,6.963,2.223,7h2.333c3.315-.041,1.963-4.983,2.223-7,2.007-.267,6.959,1.1,7-2.183v-2.517a3.363,3.363,0,0,0,2.788-2.383c.529-1.761,3.241-10.8,3.7-12.338.529-2.161,3-8.829,2.845-11.007v-8.208A1.056,1.056,0,0,0,175.047,180.5Zm-17.39,44.469c.111.239-2.391.056-2.444.11a.111.111,0,0,1-.11-.11v-4.777h2.554v4.777Zm7-6.96c-.04.137-16.506.136-16.554,0,0,0,0-2.484,0-2.484h16.555Zm5.4-13.93h-9.014a1.277,1.277,0,1,1,0-2.554h9.78Z" data-name="Path 33" transform="translate(-20.931 -155.075)"/><path id="Path_34" fill="url(#linear-gradient)" d="M149.449,11.668h-3.611V9.184c-.042-3.283-5-1.916-7-2.183-.258-2.017,1.089-6.963-2.223-7h-2.333c-3.315.041-1.963,4.983-2.223,7-2.007.267-6.959-1.1-7,2.183v2.484c-4.437-.318-9.061.269-9.334,5.723v4.667c0,2.839,0,9.719,0,12.631-.138,2.108,1.693,6.846,2.211,8.895a1.057,1.057,0,0,0,2.024-.607c-.416-1.682-2.212-6.506-2.12-8.194h8.276a1.056,1.056,0,0,0,0-2.113h-8.277V27.781c2.978-.258,9.239,1.348,9.334-3.39-.09-4.736-6.366-3.133-9.334-3.39-.042-2.991-.532-7.026,3.611-7.221h28a3.617,3.617,0,0,1,3.452,2.554H140.115a1.056,1.056,0,0,0,0,2.113h12.944v3.878a1.057,1.057,0,0,0,2.113,0C155.329,17.657,155.664,12,149.449,11.668ZM123.782,23.114a1.277,1.277,0,0,1,0,2.554h-5.944V23.114Zm10.39-20.89c-.111-.239,2.391-.056,2.444-.11a.111.111,0,0,1,.11.11V7h-2.554V2.224Zm-7,9.444V9.184a.071.071,0,0,1,.07-.07c.088.072,16.486-.136,16.484.07,0,0,0,2.484,0,2.484Z" data-name="Path 34" transform="translate(0)"/><path id="Path_35" fill="url(#linear-gradient)" d="M275.435,184.345a1.057,1.057,0,0,0,0-2.113H266.1a1.057,1.057,0,0,0,0,2.113Z" data-name="Path 35" transform="translate(-128.319 -156.564)"/><path id="Path_36" fill="url(#linear-gradient)" d="M206.835,283.745a1.057,1.057,0,0,0,0-2.113h-7a1.057,1.057,0,0,0,0,2.113Z" data-name="Path 36" transform="translate(-71.386 -241.963)"/></g></svg>