<svg xmlns="http://www.w3.org/2000/svg" width="230" height="66.262" viewBox="0 0 230 66.262">
  <g id="Group_27" data-name="Group 27" transform="translate(-118.694 -20.694)">
    <g id="leaves" transform="translate(118.694 20.694)">
      <path id="Path_37" data-name="Path 37" d="M112.8,28.69l13.445,10.029V28.954a17.305,17.305,0,0,0-10.029-15.7Z" transform="translate(-99.181 -11.651)" fill="#0fa345"/>
      <path id="Path_38" data-name="Path 38" d="M13.252,128.655a17.305,17.305,0,0,0,15.7,10.029h9.764L26.983,126.947Z" transform="translate(-11.652 -111.616)" fill="#0cb94b"/>
      <path id="Path_39" data-name="Path 39" d="M17.039,1.6A17.236,17.236,0,0,0,9.764,0H0L7.612,11.028l9.427,6.011Z" fill="#27eb6f"/>
      <path id="Path_40" data-name="Path 40" d="M0,0V9.764a17.235,17.235,0,0,0,1.6,7.275H17.039Z" fill="#15c957"/>
      <path id="Path_41" data-name="Path 41" d="M301.314,28.69,287.869,38.719V28.954a17.305,17.305,0,0,1,10.029-15.7Z" transform="translate(-253.104 -11.651)" fill="#0cb94b"/>
      <path id="Path_42" data-name="Path 42" d="M313.336,128.655a17.305,17.305,0,0,1-15.7,10.029h-9.764l11.737-11.737Z" transform="translate(-253.104 -111.616)" fill="#0fa345"/>
      <path id="Path_43" data-name="Path 43" d="M370.91,1.6A17.236,17.236,0,0,1,378.185,0h9.764l-7.612,11.028-9.427,6.011Z" transform="translate(-326.116)" fill="#15c957"/>
      <path id="Path_44" data-name="Path 44" d="M387.949,0V9.764a17.236,17.236,0,0,1-1.6,7.275H370.91Z" transform="translate(-326.116)" fill="#27eb6f"/>
      <path id="Path_45" data-name="Path 45" d="M301.314,297.9l-13.445-10.029v9.764a17.3,17.3,0,0,0,10.029,15.7Z" transform="translate(-253.104 -253.104)" fill="#0fa345"/>
      <path id="Path_46" data-name="Path 46" d="M313.336,297.9a17.305,17.305,0,0,0-15.7-10.029h-9.764l11.737,11.737Z" transform="translate(-253.104 -253.104)" fill="#0cb94b"/>
      <path id="Path_47" data-name="Path 47" d="M370.91,386.349a17.235,17.235,0,0,0,7.275,1.6h9.764l-7.612-11.028-9.427-6.011Z" transform="translate(-326.116 -326.116)" fill="#27eb6f"/>
      <path id="Path_48" data-name="Path 48" d="M387.949,387.949v-9.764a17.236,17.236,0,0,0-1.6-7.275H370.91Z" transform="translate(-326.116 -326.116)" fill="#15c957"/>
      <path id="Path_49" data-name="Path 49" d="M112.8,297.9l13.445-10.029v9.764a17.3,17.3,0,0,1-10.029,15.7Z" transform="translate(-99.181 -253.104)" fill="#0cb94b"/>
      <path id="Path_50" data-name="Path 50" d="M13.252,297.9a17.305,17.305,0,0,1,15.7-10.029h9.764L26.983,299.606Z" transform="translate(-11.652 -253.104)" fill="#0fa345"/>
      <path id="Path_51" data-name="Path 51" d="M17.039,386.349a17.235,17.235,0,0,1-7.275,1.6H0l7.612-11.028,9.427-6.011Z" transform="translate(0 -326.116)" fill="#15c957"/>
      <path id="Path_52" data-name="Path 52" d="M0,387.949v-9.764a17.235,17.235,0,0,1,1.6-7.275H17.039Z" transform="translate(0 -326.116)" fill="#27eb6f"/>
    </g>
    <text id="LOGO" transform="translate(235.034 71.956)" fill="#8e9091" font-size="53" font-family="DINCondensed-Bold, DIN Condensed" font-weight="700" letter-spacing="0.01em"><tspan x="-44.467" y="0">LOGO</tspan></text>
  </g>
</svg>
