<svg xmlns="http://www.w3.org/2000/svg" xmlns:xlink="http://www.w3.org/1999/xlink" width="76.125" height="37.664" viewBox="0 0 76.125 37.664"><defs><linearGradient id="linear-gradient" x1=".5" x2=".5" y2="1" gradientUnits="objectBoundingBox"><stop offset="0" stop-color="#4bdba4"/><stop offset="1" stop-color="#4bdb80"/></linearGradient></defs><g id="XMLID_2036_" transform="translate(0.5 -130.56)"><g id="XMLID_1674_" transform="translate(0 131.06)"><path id="XMLID_1697_" fill="url(#linear-gradient)" stroke="#f4f4f4" stroke-width="1" d="M74.121,155.68a6.245,6.245,0,0,0-3.233-9.309,6.257,6.257,0,0,0-6.229-5.75q-.12,0-.24,0a6.259,6.259,0,0,0-6.672-4.1,6.255,6.255,0,0,0-7.835-3.281,6.255,6.255,0,0,0-8.541-.91,6.261,6.261,0,0,0-7.6.013,6.257,6.257,0,0,0-8.559.9,6.255,6.255,0,0,0-7.835,3.281,6.259,6.259,0,0,0-6.672,4.1q-.12,0-.24,0a6.257,6.257,0,0,0-6.229,5.75A6.245,6.245,0,0,0,1,155.68a1.467,1.467,0,0,0-1,1.391,10.665,10.665,0,0,0,10.653,10.653H47.826a1.467,1.467,0,1,0,0-2.935H10.653a7.732,7.732,0,0,1-7.579-6.252H72.05a7.732,7.732,0,0,1-7.579,6.251H59.564a1.467,1.467,0,1,0,0,2.935h4.908a10.665,10.665,0,0,0,10.653-10.653,1.463,1.463,0,0,0-1-1.391ZM5.888,149a1.467,1.467,0,0,0,1.3-1.662,3.371,3.371,0,0,1-.033-.464,3.315,3.315,0,0,1,4.264-3.175,1.467,1.467,0,0,0,1.881-1.273,3.312,3.312,0,0,1,4.521-2.774,1.467,1.467,0,0,0,1.988-1.11,3.313,3.313,0,0,1,5.091-2.185,1.467,1.467,0,0,0,2.117-.553,3.313,3.313,0,0,1,5.591-.494,1.467,1.467,0,0,0,2.337,0,3.312,3.312,0,0,1,5.267-.016,1.467,1.467,0,0,0,2.325,0,3.312,3.312,0,0,1,5.578.51,1.467,1.467,0,0,0,2.117.553,3.313,3.313,0,0,1,5.091,2.185,1.467,1.467,0,0,0,1.988,1.11,3.312,3.312,0,0,1,4.521,2.774,1.467,1.467,0,0,0,1.881,1.273,3.315,3.315,0,0,1,4.264,3.175,3.371,3.371,0,0,1-.033.464,1.467,1.467,0,0,0,1.3,1.662,3.314,3.314,0,0,1-.359,6.608H6.248A3.314,3.314,0,0,1,5.888,149Z" transform="translate(0 -131.06)"/><path id="XMLID_1727_" fill="url(#linear-gradient)" stroke="#f4f4f4" stroke-width="1" d="M207.883,238.735a1.467,1.467,0,0,0,1.467,1.467,5.2,5.2,0,0,0,5.132-4.306,1.467,1.467,0,0,0-2.89-.508,2.271,2.271,0,0,1-2.241,1.879A1.467,1.467,0,0,0,207.883,238.735Z" transform="translate(-177.381 -219.045)"/><path id="XMLID_1730_" fill="url(#linear-gradient)" stroke="#f4f4f4" stroke-width="1" d="M281.781,196.611a1.466,1.466,0,0,0,1.7-1.191,2.271,2.271,0,0,1,2.241-1.879,1.467,1.467,0,0,0,0-2.935,5.2,5.2,0,0,0-5.132,4.306A1.468,1.468,0,0,0,281.781,196.611Z" transform="translate(-239.4 -181.869)"/><path id="XMLID_1731_" fill="url(#linear-gradient)" stroke="#f4f4f4" stroke-width="1" d="M80.678,238.158a1.466,1.466,0,0,0,1.7-1.191,2.271,2.271,0,0,1,2.241-1.879,1.467,1.467,0,1,0,0-2.935,5.2,5.2,0,0,0-5.132,4.306A1.468,1.468,0,0,0,80.678,238.158Z" transform="translate(-67.804 -217.32)"/><path id="XMLID_1732_" fill="url(#linear-gradient)" stroke="#f4f4f4" stroke-width="1" d="M168.732,192.31a2.271,2.271,0,0,1,2.914.256,1.467,1.467,0,0,0,2.075-2.075,5.2,5.2,0,0,0-6.673-.584,1.467,1.467,0,0,0,1.685,2.4Z" transform="translate(-142.004 -180.466)"/><path id="XMLID_1733_" fill="url(#linear-gradient)" stroke="#f4f4f4" stroke-width="1" d="M364.673,235.064a2.27,2.27,0,0,1,1.879,2.241,1.467,1.467,0,0,0,2.935,0,5.2,5.2,0,0,0-4.306-5.132,1.467,1.467,0,0,0-.508,2.891Z" transform="translate(-310.13 -217.318)"/><path id="XMLID_1734_" fill="url(#linear-gradient)" stroke="#f4f4f4" stroke-width="1" d="M357.417,360.939a1.468,1.468,0,1,0,1.037.43A1.478,1.478,0,0,0,357.417,360.939Z" transform="translate(-303.722 -327.209)"/></g></g></svg>