<svg xmlns="http://www.w3.org/2000/svg" width="57.979" height="51.455" viewBox="0 0 57.979 51.455"><g id="nuggets" transform="translate(0.001 -28.805)"><path id="Path_14" fill="#4bdb80" d="M112.311,199.1a.849.849,0,0,0-1.192.144,1.582,1.582,0,0,1-2.605,0,.849.849,0,0,0-1.336,1.048,3.278,3.278,0,0,0,5.278,0A.849.849,0,0,0,112.311,199.1Z" data-name="Path 14" transform="translate(-94.88 -150.847)"/><path id="Path_15" fill="#4bdb80" d="M181.464,219.1a.849.849,0,0,0-1.192.144,1.582,1.582,0,0,1-2.606,0,.849.849,0,0,0-1.336,1.049,3.279,3.279,0,0,0,5.278,0A.849.849,0,0,0,181.464,219.1Z" data-name="Path 15" transform="translate(-156.202 -168.589)"/><path id="Path_16" fill="#4bdb80" d="M201.977,85.688a.849.849,0,1,0-1.336-1.048,1.582,1.582,0,0,1-2.606,0,.849.849,0,1,0-1.336,1.048A3.279,3.279,0,0,0,201.977,85.688Z" data-name="Path 16" transform="translate(-174.264 -49.224)"/><path id="Path_17" fill="#4bdb80" d="M271.132,105.7a.849.849,0,1,0-1.336-1.048,1.582,1.582,0,0,1-2.606,0,.849.849,0,1,0-1.336,1.048A3.278,3.278,0,0,0,271.132,105.7Z" data-name="Path 17" transform="translate(-235.588 -66.966)"/><path id="Path_18" fill="#4bdb80" d="M321.359,199.1a.849.849,0,0,0-1.192.144,1.582,1.582,0,0,1-2.605,0,.849.849,0,0,0-1.336,1.048,3.278,3.278,0,0,0,5.278,0A.849.849,0,0,0,321.359,199.1Z" data-name="Path 18" transform="translate(-280.255 -150.847)"/><path id="Path_19" fill="#4bdb80" d="M390.512,219.1a.849.849,0,0,0-1.192.144,1.582,1.582,0,0,1-2.606,0,.849.849,0,1,0-1.336,1.049,3.278,3.278,0,0,0,5.278,0A.849.849,0,0,0,390.512,219.1Z" data-name="Path 19" transform="translate(-341.577 -168.589)"/><path id="Path_20" fill="#4bdb80" d="M54.862,56.475a4.114,4.114,0,0,0-1.286-4.311,2.5,2.5,0,0,1-.827-2.247,4.114,4.114,0,0,0-4.111-4.567h-.072a2.414,2.414,0,0,1-2.114-1.224A4.339,4.339,0,0,0,44.89,42.4a4.128,4.128,0,0,0-1.452-3.209,2.5,2.5,0,0,1-.827-2.247,4.112,4.112,0,0,0-4.184-4.566,2.59,2.59,0,0,1-2.26-1.481,4.108,4.108,0,0,0-5.727-1.478,2.632,2.632,0,0,1-2.9,0,4.108,4.108,0,0,0-5.726,1.478,2.466,2.466,0,0,1-2.332,1.481,4.112,4.112,0,0,0-4.118,4.5,2.452,2.452,0,0,1-.829,2.321,4.129,4.129,0,0,0-1.443,3.2,4.3,4.3,0,0,0-1.561,1.731A2.386,2.386,0,0,1,9.34,45.35a4.113,4.113,0,0,0-4.118,4.5,2.45,2.45,0,0,1-.829,2.321,4.114,4.114,0,0,0-1.277,4.3A5.85,5.85,0,0,0,.109,62.768a34.107,34.107,0,0,0,1.6,5.617A.849.849,0,0,0,3.3,67.78a32.412,32.412,0,0,1-1.519-5.337A4.155,4.155,0,0,1,5.645,57.5c.223-.011-.187,0,7.207-.006a2.922,2.922,0,0,0,.962,2.2l10.04,9.116a7.609,7.609,0,0,0,10.269,0l4.515-4.1A.849.849,0,1,0,37.5,63.458l-4.515,4.1a5.917,5.917,0,0,1-7.985,0c-10.783-9.8-10.152-9.165-10.309-9.456a1.238,1.238,0,0,1,.922-1.791c.078-.01,26.589-.023,26.759,0A1.242,1.242,0,0,1,43.338,58c-.143.335-.168.3-3.349,3.191a.849.849,0,0,0,1.142,1.258c3.136-2.852,3.433-3,3.763-3.781a2.927,2.927,0,0,0,.231-1.177c7.292.017,7.205-.061,7.937.107a4.155,4.155,0,0,1,3.14,4.842,29.765,29.765,0,0,1-5.4,12.339,9.832,9.832,0,0,1-7.756,3.78H14.93a9.832,9.832,0,0,1-7.756-3.78,26.534,26.534,0,0,1-2.38-3.7.849.849,0,0,0-1.5.8,28.239,28.239,0,0,0,2.533,3.939,11.541,11.541,0,0,0,9.1,4.442H43.048a11.541,11.541,0,0,0,9.1-4.442,31.468,31.468,0,0,0,5.719-13.05,5.85,5.85,0,0,0-3.007-6.293ZM15.7,40.421a.782.782,0,0,1-.061.058A.824.824,0,0,0,15.7,40.421Zm-.066.062a4.039,4.039,0,0,0,1.438-3.529,2.481,2.481,0,0,1,.6-2.1,2.383,2.383,0,0,1,1.779-.784,4.079,4.079,0,0,0,3.69-2.085,2.549,2.549,0,0,1,1.642-1.4,2.592,2.592,0,0,1,2.055.4,4.092,4.092,0,0,0,4.3,0,2.483,2.483,0,0,1,2.055-.4,2.561,2.561,0,0,1,1.642,1.4,4.117,4.117,0,0,0,3.69,2.084,2.409,2.409,0,0,1,2.4,2.667,4.256,4.256,0,0,0,1.417,3.745,2.393,2.393,0,0,1,.8,1.32,4.066,4.066,0,0,0-2.317.45,6.021,6.021,0,0,1-.89.473,2.541,2.541,0,0,1-2.259-.335,4.109,4.109,0,0,0-5.619,1.3c-.087.138-.13.22-.254.438a2.387,2.387,0,0,1-2.186,1.223,4.531,4.531,0,0,0-.627.045,6.809,6.809,0,0,1-1.488-.172A2.594,2.594,0,0,1,26.03,43.87,4.109,4.109,0,0,0,20.3,42.391c-.166.1-.225.141-.339.2a2.452,2.452,0,0,1-2.478-.147,4.209,4.209,0,0,0-2.649-.641,2.393,2.393,0,0,1,.8-1.32ZM5.564,53.4a.815.815,0,0,1-.059.056Q5.536,53.429,5.564,53.4Zm7.855,2.4c-7.855,0-7.886-.05-8.7.11A2.431,2.431,0,0,1,5.5,53.459a4.053,4.053,0,0,0,1.435-3.527l-.023-.242a2.41,2.41,0,0,1,2.411-2.641A4.12,4.12,0,0,0,13,44.964l.146-.258a2.412,2.412,0,0,1,2.866-1.1,2.979,2.979,0,0,1,.686.347,4.092,4.092,0,0,0,4.3,0,2.483,2.483,0,0,1,2.055-.4,2.561,2.561,0,0,1,1.642,1.4,4.134,4.134,0,0,0,3.675,2.085,2.419,2.419,0,0,1,2.414,2.667A4.256,4.256,0,0,0,32.2,53.461a2.414,2.414,0,0,1,.751,1.139H15.784A2.906,2.906,0,0,0,13.42,55.8Zm31.139,0a2.886,2.886,0,0,0-1.7-1.121c-.521-.119-.424-.072-8.162-.075a4.093,4.093,0,0,0-1.4-2.436,2.5,2.5,0,0,1-.827-2.247,4.1,4.1,0,0,0-1.052-3.242c2.1-.98,1.615-2.254,3.043-2.948a2.46,2.46,0,0,1,2.513.229,4.092,4.092,0,0,0,4.3,0l.192-.118a2.427,2.427,0,0,1,2.081-.211,2.53,2.53,0,0,1,1.424,1.337,4.116,4.116,0,0,0,3.69,2.085,2.409,2.409,0,0,1,2.4,2.667,4.256,4.256,0,0,0,1.417,3.745,2.414,2.414,0,0,1,.779,2.444c-1-.2-1.257-.072-8.7-.11Z" data-name="Path 20" transform="translate(0 0)"/></g></svg>