<svg xmlns="http://www.w3.org/2000/svg" width="264" height="60" viewBox="0 0 219.631 49.507"><g transform="translate(-91.381 -45.864)"><g transform="translate(127.236 45.982)"><path d="M-25.917,1.723h-6.835l-2.01-10.251h-9.313l-2.01,10.251h-6.834l10.652-47.7h5.7l10.653,47.7Zm-13.6-33.97h0l-3.35,17.285h6.835l-3.351-17.285h-.134ZM1.687,1.723H-4.746L-15.2-26.954h-.134V1.722h-6.834v-47.7H-15.6L-5.281-17.239h.133V-45.982H1.687v47.7Zm-56.615,0H-75.3v-47.7h6.834v40.87h13.534V1.721Zm-41.473,0h-6.834v-47.7h10.251a15.307,15.307,0,0,1,4.958.737,9.539,9.539,0,0,1,3.885,2.613,10.252,10.252,0,0,1,2.412,4.388,27.543,27.543,0,0,1,.671,6.8,33.884,33.884,0,0,1-.369,5.427A11.393,11.393,0,0,1-83-21.862a10.02,10.02,0,0,1-3.752,3.651A12.685,12.685,0,0,1-92.918-16.9H-96.4V1.721Zm0-41.272v16.214h3.283a7.019,7.019,0,0,0,3.216-.6,3.812,3.812,0,0,0,1.675-1.675,6.165,6.165,0,0,0,.637-2.479c.066-.978.1-2.083.1-3.283,0-1.1-.022-2.175-.067-3.182a6.926,6.926,0,0,0-.6-2.646,3.824,3.824,0,0,0-1.608-1.742,6.418,6.418,0,0,0-3.082-.6ZM19.843-22.261H13.009V-39.55H5.1v-6.431H27.75v6.431H19.843v17.289Z" transform="translate(106.452 46.278)" fill="#0fa345"/></g><g transform="translate(116.134 45.864) rotate(45)"><path d="M0,8.741l7.612,5.678V8.89A9.8,9.8,0,0,0,1.934,0Z" transform="translate(7.713 0.906)" fill="#0fa345"/><path d="M0,.967A9.8,9.8,0,0,0,8.89,6.645h5.528L7.774,0Z" transform="translate(0.906 8.68)" fill="#0cb94b"/><path d="M9.647.906A9.758,9.758,0,0,0,5.528,0H0L4.309,6.243l5.337,3.4Z" transform="translate(0 0)" fill="#27eb6f"/><path d="M0,0V5.528A9.758,9.758,0,0,0,.906,9.647H9.647Z" transform="translate(0 0)" fill="#15c957"/><path d="M7.612,5.678,0,0V5.528a9.8,9.8,0,0,0,5.678,8.89Z" transform="translate(19.682 19.682)" fill="#0fa345"/><path d="M14.418,5.678A9.8,9.8,0,0,0,5.528,0H0L6.645,6.645Z" transform="translate(19.682 19.682)" fill="#0cb94b"/><path d="M0,8.741a9.758,9.758,0,0,0,4.119.906H9.647L5.337,3.4,0,0Z" transform="translate(25.36 25.36)" fill="#27eb6f"/><path d="M9.647,9.647V4.119A9.759,9.759,0,0,0,8.741,0H0Z" transform="translate(25.36 25.36)" fill="#15c957"/><path d="M0,5.678,7.612,0V5.528a9.8,9.8,0,0,1-5.678,8.89Z" transform="translate(7.713 19.682)" fill="#0cb94b"/><path d="M0,5.678A9.8,9.8,0,0,1,8.89,0h5.528L7.774,6.645Z" transform="translate(0.906 19.682)" fill="#0fa345"/><path d="M9.647,8.741a9.758,9.758,0,0,1-4.119.906H0L4.309,3.4,9.647,0Z" transform="translate(0 25.36)" fill="#15c957"/><path d="M0,9.647V4.119A9.758,9.758,0,0,1,.906,0H9.647Z" transform="translate(0 25.36)" fill="#27eb6f"/></g><path d="M-32.172,0V-19.936h8.512v2.688h-5.656V-11.4h4.928v2.688h-4.928v5.852h5.656V0ZM-18.4-17.248v6.216h1.624a2.874,2.874,0,0,0,1.2-.21,1.636,1.636,0,0,0,.7-.6,2.737,2.737,0,0,0,.308-.966,9.288,9.288,0,0,0,.084-1.33,9.289,9.289,0,0,0-.084-1.33,2.662,2.662,0,0,0-.336-.994,2.272,2.272,0,0,0-2.016-.784ZM-21.252,0V-19.936h4.592q5.04,0,5.04,5.852a7.375,7.375,0,0,1-.546,3A4.234,4.234,0,0,1-14.084-9.1L-11,0h-3.024l-2.66-8.512H-18.4V0ZM-8.876,0V-19.936h2.744L-1.82-7.924h.056V-19.936H1.092V0H-1.6L-5.964-11.984H-6.02V0ZM10-6.972,8.6-14.2H8.54L7.14-6.972ZM2.94,0,7.392-19.936h2.38L14.224,0H11.368l-.84-4.284H6.636L5.8,0ZM16.52,0V-17.248h-3.3v-2.688H22.68v2.688h-3.3V0ZM24.5,0V-19.936h8.512v2.688H27.356V-11.4h4.928v2.688H27.356v5.852h5.656V0Z" transform="translate(278 95)" fill="#27eb6f"/><rect width="51" height="6" transform="translate(260 64)" fill="#0fa345"/></g></svg>