<svg width="87" height="35" xmlns="http://www.w3.org/2000/svg">

 <g>
  <title>background</title>
  <rect fill="none" id="canvas_background" height="37" width="89" y="-1" x="-1"/>
 </g>
 <g>
  <title>Layer 1</title>
  <g id="meat">
   <g transform="rotate(60, 21.1175, 29.7303)" id="Group_14">
    <g id="Group_13">
     <g fill="#4bdb80" id="Path_6">
      <path id="svg_1" d="m21.1034,31.02275c-0.38947,0 -0.75317,-0.1742 -0.99785,-0.47797c-0.44258,-0.54959 -0.35472,-1.35751 0.19589,-1.801l0.00229,-0.00183l0.00226,-0.00189c0.23065,-0.19488 0.52371,-0.30221 0.8252,-0.30221c0.37799,0 0.73454,0.16534 0.97821,0.45364c0.45538,0.53894 0.38748,1.3479 -0.15137,1.80331c-0.01796,0.01505 -0.03676,0.03055 -0.05574,0.0459c-0.22902,0.18439 -0.50543,0.28205 -0.79889,0.28205z"/>
      <path id="svg_2" fill="#fdfdff" d="m21.13119,28.68785c-0.2425,0 -0.47826,0.08636 -0.66387,0.24316l-0.00448,0.00378l-0.00458,0.0037c-0.44327,0.35702 -0.51413,1.00726 -0.15802,1.44946c0.19699,0.24454 0.48973,0.3848 0.80316,0.3848c0.23579,0 0.45801,-0.07856 0.64159,-0.22635c0.01791,-0.0145 0.03566,-0.02915 0.05165,-0.04251c0.43359,-0.36646 0.48822,-1.0174 0.12181,-1.45102c-0.19606,-0.232 -0.483,-0.36502 -0.78726,-0.36502m0,-0.5c0.43472,0 0.86656,0.18426 1.16914,0.54226c0.54532,0.64536 0.46423,1.61039 -0.18094,2.15564c-0.0199,0.01667 -0.03976,0.03305 -0.05981,0.04929c-0.28238,0.22732 -0.62046,0.33771 -0.95618,0.33771c-0.44696,0 -0.88992,-0.19547 -1.19254,-0.57114c-0.52984,-0.65793 -0.42413,-1.62265 0.23377,-2.15253c0.28718,-0.24264 0.6378,-0.36123 0.98656,-0.36123z"/>
     </g>
    </g>
   </g>
   <g transform="rotate(60, 16.5378, 19.3756)" id="Group_16">
    <g id="Group_15">
     <g fill="#4bdb80" id="Path_7">
      <path id="svg_3" d="m17.02593,21.39351c-0.39939,0 -0.79633,-0.05341 -1.17985,-0.15875c-1.07043,-0.29346 -1.98812,-0.97239 -2.58413,-1.91169c-0.18314,-0.2886 -0.24289,-0.63125 -0.16834,-0.96478c0.07459,-0.33359 0.2746,-0.6181 0.56324,-0.80124c0.20547,-0.1304 0.44201,-0.19934 0.68402,-0.19934c0.44146,0 0.84594,0.22214 1.08197,0.59424c0.25799,0.4064 0.63839,0.68811 1.10009,0.81473c0.16849,0.04605 0.34049,0.06936 0.51139,0.06936c0.35714,0 0.70761,-0.10263 1.01352,-0.29684c0.20544,-0.13028 0.44198,-0.19919 0.68402,-0.19919c0.4415,0 0.84594,0.22217 1.08188,0.59433c0.1831,0.28873 0.24286,0.63138 0.16824,0.96497c-0.07465,0.33355 -0.27469,0.61807 -0.56332,0.80111c-0.71463,0.45343 -1.542,0.69309 -2.39273,0.69309z"/>
      <path id="svg_4" fill="#fdfdff" d="m14.34087,17.60771c-0.19449,0 -0.38471,0.05545 -0.55011,0.16046c-0.23224,0.14734 -0.39316,0.37625 -0.45316,0.64466c-0.06,0.26837 -0.0119,0.54406 0.13544,0.7763c0.56262,0.88669 1.4288,1.52753 2.43927,1.80454c0.36194,0.09942 0.7366,0.14984 1.11362,0.14984c0.80322,0 1.58428,-0.2262 2.25881,-0.65421c0.23224,-0.14728 0.39319,-0.37622 0.45325,-0.64459c0.06006,-0.2684 0.012,-0.54416 -0.1354,-0.77649c-0.18985,-0.29947 -0.51532,-0.47824 -0.87067,-0.47821c-0.19461,0.00003 -0.38489,0.05548 -0.55008,0.16025c-0.34604,0.21966 -0.74283,0.33578 -1.14752,0.33578c-0.19318,0 -0.38733,-0.02627 -0.57749,-0.07827c-0.52267,-0.14335 -0.95318,-0.46207 -1.24508,-0.92188c-0.18994,-0.29944 -0.51551,-0.47818 -0.87088,-0.47818m0,-0.5c0.50637,0 1.0018,0.25116 1.29309,0.71033c0.22409,0.35299 0.5542,0.59759 0.95511,0.70755c0.14798,0.04043 0.29739,0.06048 0.44525,0.06048c0.30859,0 0.61056,-0.08718 0.87951,-0.25793c0.25412,-0.16116 0.53782,-0.2381 0.81803,-0.23813c0.50644,-0.00006 1.00183,0.25116 1.29303,0.71048c0.45248,0.71341 0.24109,1.6586 -0.47235,2.11105c-0.76053,0.48258 -1.63959,0.73197 -2.52661,0.73197c-0.41745,0 -0.83671,-0.05524 -1.24607,-0.1677c-1.13055,-0.30993 -2.0997,-1.027 -2.729,-2.01879c-0.45258,-0.71329 -0.24137,-1.65845 0.47204,-2.11106c0.25406,-0.16125 0.53775,-0.23825 0.81797,-0.23825z"/>
     </g>
    </g>
   </g>
   <g transform="rotate(60, 58.0285, 17.4661)" id="Group_18">
    <g id="Group_17">
     <g fill="#4bdb80" id="Path_8">
      <path id="svg_5" d="m58.02452,18.7915c-0.05634,0 -0.11254,-0.00366 -0.16704,-0.01085c-0.33939,-0.04425 -0.64084,-0.21779 -0.84926,-0.48871c-0.20841,-0.27092 -0.29881,-0.60675 -0.25455,-0.94563l0.01274,-0.09574c0.08469,-0.6327 0.62863,-1.10995 1.26523,-1.10995c0.05725,0 0.11527,0.00392 0.17247,0.01166c0.33913,0.04533 0.63994,0.21988 0.8474,0.49153c0.20744,0.27163 0.29669,0.60779 0.25133,0.94655l-0.01139,0.08651c-0.0829,0.63556 -0.62755,1.11463 -1.26693,1.11463z"/>
      <path id="svg_6" fill="#fdfdff" d="m58.03164,16.39062c-0.51189,0 -0.94929,0.38403 -1.01741,0.89294l-0.01268,0.09511c-0.0356,0.27266 0.03714,0.54286 0.20482,0.76083c0.16771,0.21799 0.41026,0.35764 0.68385,0.3933c0.04367,0.00577 0.08887,0.0087 0.1343,0.0087c0.51425,0 0.95233,-0.38549 1.01907,-0.89723l0.01146,-0.08709c0.0365,-0.27259 -0.03533,-0.54307 -0.20223,-0.76162c-0.1669,-0.21857 -0.40893,-0.35901 -0.68217,-0.39554c-0.04616,-0.00624 -0.09293,-0.0094 -0.13901,-0.0094m0,-0.5c0.06798,0 0.13674,0.00455 0.20595,0.0139c0.83748,0.11197 1.42514,0.88185 1.31303,1.71902l-0.0113,0.08596c-0.10051,0.77061 -0.75809,1.332 -1.5148,1.332c-0.06592,0 -0.13262,-0.00414 -0.19977,-0.013c-0.83777,-0.10923 -1.42836,-0.87693 -1.31899,-1.71457l0.01283,-0.09636c0.10285,-0.7683 0.75971,-1.32695 1.51305,-1.32695z"/>
     </g>
    </g>
   </g>
   <g transform="rotate(60, 66.8917, 14.1377)" id="Group_20">
    <g id="Group_19">
     <g fill="#4bdb80" id="Path_9">
      <path id="svg_7" d="m65.71434,20.00577c-0.01072,0 -0.02143,-0.00015 -0.03219,-0.0004c-0.34142,-0.00835 -0.6594,-0.14927 -0.89514,-0.39679c-0.23578,-0.24754 -0.36101,-0.57201 -0.35263,-0.91364c0.04492,-1.84643 -0.02951,-3.71434 -0.22126,-5.5519c-0.24554,-2.43406 1.53513,-4.61764 3.9695,-4.86672c0.04389,-0.00446 0.08847,-0.00673 0.13239,-0.00673c0.65744,0 1.20385,0.49416 1.27101,1.14947c0.07193,0.70187 -0.44072,1.33142 -1.14276,1.40336c-1.03275,0.10562 -1.78836,1.02951 -1.68433,2.0595c0.20287,1.94401 0.28152,3.92052 0.23389,5.87544c-0.01683,0.68837 -0.59035,1.24841 -1.27848,1.24841z"/>
      <path id="svg_8" fill="#fdfdff" d="m68.31501,8.51959c-0.0355,0 -0.07158,0.00184 -0.10695,0.00543c-2.29743,0.23507 -3.97792,2.29583 -3.74629,4.59207c0.19285,1.84813 0.26773,3.72682 0.22251,5.58397c-0.00672,0.27486 0.09404,0.53593 0.28376,0.7351c0.18969,0.19917 0.44557,0.31257 0.72001,0.31928c0.00878,0.00021 0.01754,0.00032 0.02629,0.00032c0.55361,0 1.01502,-0.45063 1.02857,-1.00449c0.04736,-1.94427 -0.03087,-3.90999 -0.23271,-5.84422c-0.11788,-1.16697 0.73791,-2.2137 1.90757,-2.33333c0.56492,-0.05788 0.97742,-0.56444 0.91956,-1.12918c-0.05403,-0.52731 -0.49355,-0.92495 -1.02232,-0.92495m-0.00002,-0.5c0.77719,0 1.43903,0.58643 1.51973,1.37398c0.08612,0.84053 -0.52559,1.59143 -1.36597,1.67755c-0.89575,0.09161 -1.55104,0.89512 -1.46109,1.78568c0.20389,1.9538 0.28298,3.94124 0.2351,5.90665c-0.02034,0.83181 -0.70087,1.49231 -1.52842,1.49231c-0.01268,0 -0.02536,-0.00016 -0.03808,-0.00046c-0.84433,-0.02065 -1.5125,-0.72199 -1.49182,-1.56648c0.04466,-1.83495 -0.02907,-3.69039 -0.21997,-5.51983c-0.25943,-2.57176 1.62138,-4.87828 4.1927,-5.14137c0.05304,-0.00539 0.1057,-0.00803 0.15782,-0.00803z"/>
     </g>
    </g>
   </g>
   <g id="Group_22">
    <g transform="rotate(60, 42.7666, 13.1934)" id="Group_21">
     <g fill="#4bdb80" id="Path_10">
      <path id="svg_9" d="m25.52211,52.10171c-0.01119,0 -0.02252,-0.00013 -0.03372,-0.00039c-0.40256,-0.01042 -0.78164,-0.21358 -1.01342,-0.54344l-6.92389,-9.85173c-0.22274,-0.31709 -0.28965,-0.71302 -0.18355,-1.08624c0.10615,-0.37278 0.37165,-0.67404 0.72839,-0.82645l6.67509,-2.84951l0.154,-0.06574l-0.00218,-0.16743c-0.02301,-1.77578 0.40287,-3.54365 1.23163,-5.1125c0.85452,-1.61765 2.12583,-2.99254 3.67651,-3.97603c5.85387,-3.71138 10.53544,-8.9521 13.53854,-15.15556c3.01826,-6.23439 4.23303,-13.17071 3.513,-20.05908c-0.38595,-3.7698 1.30139,-7.48285 4.40363,-9.68962l0.13376,-0.09516l-0.03414,-0.16056l-1.41032,-6.63155c-0.08077,-0.3795 0.01298,-0.76999 0.25716,-1.07138c0.24405,-0.30153 0.60649,-0.47441 0.99443,-0.47441l12.11419,0c0.39387,0 0.7727,0.18624 1.01338,0.4982c0.24052,0.31191 0.32438,0.72561 0.2243,1.10659l-1.64285,6.25388l-0.04637,0.17658l0.15407,0.09793c2.75491,1.75104 4.52444,4.60693 4.85485,7.83537c1.12688,10.78154 -0.7751,21.63928 -5.50026,31.39996c-2.75314,5.68739 -6.37953,10.85569 -10.77842,15.36135c-0.24272,0.24882 -0.56784,0.38583 -0.91555,0.38586c-0.33593,0.00003 -0.65342,-0.12928 -0.89396,-0.3641c-0.24459,-0.23876 -0.38154,-0.5585 -0.38565,-0.90031c-0.00411,-0.34179 0.1251,-0.66468 0.36386,-0.90919c4.2056,-4.30775 7.67303,-9.24978 10.30598,-14.68882c4.51738,-9.33145 6.33562,-19.71267 5.25818,-30.02139c-0.20271,-1.98037 -1.13228,-3.80498 -2.61738,-5.13719c-1.47477,-1.32292 -3.37099,-2.05149 -5.33941,-2.05149c-0.27215,0 -0.54815,0.01412 -0.82035,0.04196c-4.39042,0.44952 -7.59681,4.38551 -7.14759,8.77399c0.7695,7.36059 -0.52901,14.77342 -3.7551,21.43764c-3.21086,6.63256 -8.21504,12.23499 -14.47151,16.20163c-3.73459,2.3689 -4.84584,7.33434 -2.47724,11.06881c1.07108,1.68863 2.72167,2.90959 4.64775,3.43795c0.68946,0.18926 1.40268,0.28523 2.11979,0.28523c1.52826,0 3.01582,-0.431 4.30181,-1.24643c0.69574,-0.44103 1.39296,-0.90532 2.07232,-1.37995c0.21608,-0.15096 0.46907,-0.23075 0.73159,-0.23075c0.41848,0 0.81112,0.20441 1.0503,0.54681c0.19577,0.2802 0.27072,0.61986 0.21103,0.95642c-0.05967,0.33657 -0.24686,0.62973 -0.52707,0.82546c-0.71057,0.49645 -1.43991,0.98214 -2.16781,1.44358c-1.6958,1.07556 -3.65746,1.64405 -5.67294,1.64405c-0.94649,0 -1.88712,-0.12659 -2.79648,-0.37625c-0.55416,-0.15213 -1.10842,-0.35582 -1.6474,-0.60542l-0.17978,-0.08326l-0.12213,0.15601l-4.21566,5.38521c-0.24404,0.31197 -0.61122,0.49086 -1.00741,0.49086zm-0.1936,-12.61281l-0.25332,0.10814l-4.23781,1.80909l-0.28385,0.12117l0.17746,0.25251l4.65265,6.62022l0.19374,0.27565l0.20767,-0.2653l2.77826,-3.54919l0.14585,-0.18632l-0.17803,-0.15587c-0.76403,-0.66894 -1.42614,-1.4413 -1.96794,-2.29562c-0.48848,-0.77008 -0.87591,-1.60173 -1.15152,-2.4719l-0.08316,-0.26258zm27.47887,-62.64472l0.06422,0.30199l0.84726,3.98469l0.05822,0.27385l0.26554,-0.08873c0.74198,-0.24794 1.50655,-0.41341 2.27248,-0.49181c0.35632,-0.03648 0.71787,-0.05497 1.07459,-0.05497c0.97565,0 1.94812,0.13658 2.89038,0.40595l0.24561,0.07021l0.06491,-0.24706l1.00897,-3.8406l0.08235,-0.31352l-0.32415,0l-8.24163,0l-0.30875,0z"/>
      <path id="svg_10" fill="#fdfdff" d="m25.52211,51.85171c0.31875,0 0.61416,-0.14391 0.81057,-0.39497l4.21564,-5.38521l0.24426,-0.31202l0.35956,0.16652c0.52649,0.24381 1.06767,0.44272 1.60852,0.5912c0.88781,0.24374 1.80618,0.36733 2.73031,0.36733c1.96797,0 3.88333,-0.55505 5.53909,-1.60519c0.72474,-0.45946 1.45096,-0.94305 2.1585,-1.43739c0.22545,-0.15748 0.37606,-0.39336 0.42408,-0.66417c0.04802,-0.27081 -0.01228,-0.54411 -0.16983,-0.7696c-0.19245,-0.2755 -0.50846,-0.43997 -0.84535,-0.43997c-0.21106,0 -0.41452,0.06421 -0.58841,0.18569c-0.68241,0.47676 -1.38278,0.94314 -2.08161,1.38615c-1.32612,0.84084 -2.85995,1.28529 -4.4357,1.28529c-0.73948,0 -1.47496,-0.09897 -2.18592,-0.29413c-1.9862,-0.54486 -3.68828,-1.80388 -4.79272,-3.54515c-2.44245,-3.85088 -1.29656,-8.97108 2.55446,-11.41385c6.21716,-3.9417 11.18981,-9.50879 14.38037,-16.09942c3.20579,-6.62229 4.49613,-13.98846 3.73141,-21.30326c-0.46325,-4.5256 2.84329,-8.58458 7.37087,-9.04815c0.28064,-0.0287 0.56521,-0.04325 0.84578,-0.04325c2.03013,0 3.98566,0.75126 5.50634,2.11539c1.53149,1.37382 2.49008,3.25548 2.69909,5.2973c1.08228,10.35505 -0.74412,20.78293 -5.2818,30.15631c-2.64471,5.46333 -6.12767,10.42747 -10.35213,14.75455c-0.19209,0.19672 -0.29607,0.45651 -0.29276,0.73153c0.00331,0.27503 0.11351,0.5323 0.31031,0.72442c0.19355,0.18896 0.44902,0.29301 0.7193,0.29299c0.27977,-0.00003 0.54136,-0.11025 0.7367,-0.31051c4.38003,-4.48634 7.9909,-9.63253 10.73228,-15.29563c4.70485,-9.71875 6.59867,-20.52984 5.47658,-31.26557c-0.32257,-3.15184 -2.05034,-5.9401 -4.74025,-7.64985l-0.30815,-0.19586l0.09277,-0.35315l1.64284,-6.25388c0.08052,-0.30655 0.01305,-0.63943 -0.18045,-0.89036c-0.19368,-0.25104 -0.49852,-0.40091 -0.81544,-0.40091l-12.11419,0c-0.31215,0 -0.60374,0.13909 -0.80018,0.38179c-0.19645,0.24247 -0.27186,0.55663 -0.20688,0.86199l1.41032,6.63155l0.06829,0.32113l-0.26752,0.19031c-3.02908,2.15473 -4.67667,5.77996 -4.29991,9.45992c0.72487,6.9347 -0.49807,13.91768 -3.53662,20.194c-3.0234,6.24539 -7.73648,11.52145 -13.62966,15.25775c-1.51397,0.9602 -2.75515,2.30247 -3.58936,3.88168c-0.80928,1.53201 -1.22517,3.25838 -1.20269,4.99249l0.00433,0.33485l-0.30798,0.13148l-6.67503,2.84949c-0.28711,0.12265 -0.50077,0.36508 -0.58615,0.66491c-0.08539,0.3004 -0.03155,0.61904 0.14764,0.87413l6.92387,9.85174c0.18652,0.26541 0.49153,0.42888 0.81478,0.43725c0.00924,0.00022 0.01859,0.00032 0.02783,0.00032m-0.03843,-12.70087l0.16633,0.52516c0.26909,0.8496 0.64736,1.6616 1.12432,2.41349c0.52897,0.83411 1.17544,1.58823 1.92148,2.24141l0.35605,0.31174l-0.29169,0.37265l-2.77826,3.54919l-0.41535,0.5306l-0.38745,-0.5513l-4.65266,-6.62022l-0.35493,-0.50501l0.5677,-0.24234l4.23781,-1.80909l0.50665,-0.21628m27.01495,-62.55666l0.6175,0l8.24163,0l0.64831,0l-0.16472,0.62704l-1.00897,3.8406l-0.12981,0.49413l-0.49121,-0.14043c-0.91989,-0.26298 -1.86924,-0.39632 -2.82167,-0.39632c-0.34826,0 -0.70125,0.01806 -1.04913,0.05367c-0.74767,0.07653 -1.49414,0.2381 -2.2187,0.48022l-0.53109,0.17747l-0.11645,-0.5477l-0.84726,-3.98469l-0.12843,-0.60399m-26.97652,75.75753c-0.01315,0 -0.02646,-0.00015 -0.03961,-0.00046c-0.48397,-0.01253 -0.93368,-0.25346 -1.21209,-0.64963l-6.92386,-9.85172c-0.26508,-0.37736 -0.34568,-0.85446 -0.21949,-1.29835c0.12635,-0.44374 0.44633,-0.80672 0.87065,-0.98799l6.67515,-2.84954c-0.04712,-3.63638 1.73382,-7.21602 5.02421,-9.30289c5.81472,-3.68656 10.46463,-8.89188 13.44741,-15.05337c2.99807,-6.1927 4.20465,-13.08138 3.48938,-19.92416c-0.4104,-4.00855 1.43694,-7.73518 4.50737,-9.91933l-1.41032,-6.63155c-0.09606,-0.45139 0.01682,-0.92206 0.30745,-1.28076c0.29031,-0.35869 0.72705,-0.56703 1.18867,-0.56703l12.11419,0c0.47435,0 0.9216,0.21996 1.21131,0.59549c0.28957,0.37552 0.38868,0.86408 0.26816,1.32282l-1.64284,6.25388c2.69919,1.71563 4.61948,4.60142 4.96946,8.02091c1.13163,10.82716 -0.77842,21.73157 -5.52394,31.53434c-2.76481,5.71147 -6.40668,10.90196 -10.82457,15.42706c-0.29955,0.3071 -0.69685,0.46118 -1.0944,0.46122c-0.38542,0.00003 -0.77107,-0.14472 -1.06864,-0.43521c-0.6045,-0.59013 -0.61613,-1.5587 -0.02601,-2.16305c4.18707,-4.28877 7.6388,-9.20867 10.25983,-14.62309c4.4971,-9.28958 6.30727,-19.62298 5.23454,-29.88647c-0.408,-3.98601 -3.7844,-6.96467 -7.70813,-6.96467c-0.26293,0 -0.52777,0.01334 -0.79492,0.04066c-4.25329,0.43548 -7.35936,4.24991 -6.92432,8.49983c0.77431,7.40661 -0.53246,14.86599 -3.77879,21.57203c-3.23118,6.67453 -8.26687,12.31228 -14.56266,16.30384c-3.61818,2.29506 -4.69473,7.10574 -2.39998,10.72377c1.03755,1.63578 2.63646,2.81879 4.50277,3.33076c0.67443,0.18514 1.36555,0.27632 2.05365,0.27632c1.46255,0 2.9126,-0.41158 4.16795,-1.20756c0.69108,-0.43809 1.38538,-0.90034 2.063,-1.37376c0.26668,-0.1863 0.57229,-0.27582 0.87477,-0.27582c0.48278,0 0.95778,0.22783 1.25525,0.65365c0.48381,0.69245 0.3148,1.64618 -0.37783,2.13c-0.71525,0.49973 -1.44793,0.98752 -2.17711,1.44978c-1.74877,1.10914 -3.76882,1.6829 -5.8068,1.6829c-0.00025,0 -0.00049,0 -0.00074,0c-0.95876,0 -1.92197,-0.12711 -2.86194,-0.38517c-0.58278,-0.15999 -1.14553,-0.36924 -1.68625,-0.61965l-4.21565,5.38521c-0.29018,0.37093 -0.73484,0.58676 -1.20428,0.58676zm-0.34876,-12.52474l-4.23782,1.80909l4.65266,6.62022l2.77826,-3.54919c-0.77308,-0.67686 -1.4533,-1.46508 -2.01437,-2.34982c-0.51242,-0.80779 -0.90263,-1.65857 -1.17873,-2.5303zm27.94278,-62.73279l0.84725,3.98469c0.74067,-0.2475 1.51786,-0.42065 2.32625,-0.5034c0.36945,-0.03782 0.73646,-0.05627 1.10005,-0.05627c1.02017,0 2.01355,0.14526 2.95912,0.41558l1.00896,-3.8406l-8.24163,0z"/>
     </g>
    </g>
   </g>
  </g>
 </g>
</svg>
