<svg width="468" height="206" xmlns="http://www.w3.org/2000/svg">

 <g>
  <title>background</title>
  <rect fill="none" id="canvas_background" height="35" width="88" y="-1" x="-1"/>
 </g>
 <g>
  <title>Layer 1</title>
  <path fill="#4bdb80" stroke-width="0" id="svg_1" d="m74.91195,20.16736c-9.22266,-11.75782 -27.44531,-10.44141 -34.89063,2.51953l-33.53125,58.36328c-7.44531,12.95703 0.59375,29.36719 15.40235,31.41406c12.03906,1.66016 24.09765,-0.54297 34.61718,-6.09375c3.21094,14.90625 12.58594,28.40625 26.95704,36.33203c32.46484,17.90625 67.09375,29.66407 102.40625,35.27344c22.27269,2.9714 61.21955,5.60932 97.83203,-0.08984c36.82422,-5.91797 70.80078,-18.07422 102.38672,-35.46875c14.30468,-7.8711 23.67187,-21.26563 26.9414,-36.07813c10.64453,5.63281 22.73828,7.76953 34.67969,6.1211c14.80078,-2.04297 22.84766,-18.45313 15.40234,-31.41016l-8.40625,-14.63281c-2.0625,-3.59375 -6.64843,-4.83203 -10.23828,-2.76563c-3.59375,2.0625 -4.83203,6.64453 -2.76953,10.23828l8.40625,14.62891c2.15625,3.76172 -0.16797,8.48828 -4.44531,9.08203c-11.26953,1.55469 -22.61328,-1.46875 -31.57422,-8.33203c-1.21094,-12.51563 -6.85938,-24.77734 -16.62891,-34.12109c0.10157,-9.32422 3.25782,-18.36329 9.03516,-25.72657c2.66406,-3.39453 7.92187,-3.02734 10.08594,0.73438l7.59765,13.23047c2.0625,3.59375 6.64844,4.82812 10.24219,2.76562c3.58984,-2.0625 4.82813,-6.64453 2.76563,-10.23828l-7.60157,-13.23047c-7.4375,-12.94922 -25.66797,-14.27734 -34.89062,-2.51953c-5.83203,7.43359 -9.67969,16.125 -11.32422,25.29297c-15.31641,-7.32031 -33.56641,-7.60156 -50.64063,1.77734c-61.72656,33.97657 -135.36718,33.67188 -196.57031,-0.08203c-15.98828,-8.82031 -34.51953,-8.72656 -49.86719,-1.41406c-1.61328,-9.26563 -5.48046,-18.05469 -11.3789,-25.57031zm-50.96875,77.43359c-4.27735,-0.58984 -6.60547,-5.31641 -4.44531,-9.07812l33.52734,-58.36329c2.17187,-3.78125 7.4375,-4.10937 10.08594,-0.73437c5.84765,7.45312 9.0039,16.59766 9.04297,26.02734c-4.16407,3.9961 -7.54688,8.47266 -10.11329,13.12891c-3.43359,6.23047 -5.71875,13.18359 -6.48828,20.66406c-8.96875,6.87891 -20.32812,9.91406 -31.60937,8.35547zm104.97265,-37.3125c2.08594,1.15234 4.17969,2.26172 6.28516,3.33594c-5.78516,5.4414 -11.9375,13.75781 -14.02734,25.58984c-0.8125,4.60156 2.73047,8.8086 7.39453,8.8086c3.57031,0 6.73437,-2.5586 7.3789,-6.19532c2.0625,-11.65625 10.0586,-18.32812 14.4375,-21.18359c9.42969,3.95312 19.04688,7.22266 28.79297,9.79297c-3.0664,6.0625 -5.83984,14.66797 -5.26172,25.46094c0.21875,4.14453 3.76563,7.3125 7.89063,7.08984c4.13672,-0.22266 7.30859,-3.75391 7.08984,-7.89063c-0.54687,-10.17578 3.02344,-17.41406 5.55078,-21.20312c10.8711,2.04297 21.85547,3.25 32.85547,3.61719l0,17.98828c0,4.14062 3.35938,7.5 7.5,7.5c4.14453,0 7.50391,-3.35938 7.50391,-7.5l0,-18.01563c10.98047,-0.39453 21.94141,-1.61328 32.79297,-3.68359c2.53515,3.76562 6.16406,11.03906 5.61328,21.29687c-0.22656,4.27344 3.17187,7.89844 7.49609,7.89844c3.96094,0 7.26953,-3.09765 7.48438,-7.09765c0.58203,-10.87891 -2.23828,-19.53125 -5.33594,-25.60157c9.69531,-2.58203 19.26563,-5.84765 28.64453,-9.79687c4.32813,2.76953 12.5625,9.47265 14.66016,21.32422c0.71875,4.07031 4.60156,6.80078 8.6914,6.07812c4.07813,-0.71875 6.80079,-4.61328 6.07813,-8.6914c-2.11719,-11.96485 -8.38672,-20.34375 -14.23047,-25.77735c3.30469,-1.69922 5.17969,-2.73437 6.51953,-3.47265c25.45313,-14.00391 57.30469,3.45312 58.57813,32.91015c0.60937,14.29297 -6.35547,28.64063 -21.19141,36.82031c-88.95703,48.96094 -196.41406,50.05079 -287.39453,-0.125c-13.95313,-7.69531 -21.54688,-22.72265 -20.30078,-37.9414c2.34765,-28.64453 33.59375,-45.07422 58.5039,-31.33594z"/>
  <path id="svg_7" d="m247.5,437.95068" opacity="0.5" fill-opacity="null" stroke-opacity="null" stroke-width="null" stroke="null" fill="null"/>
  <path id="svg_10" d="m272.12245,255.1148" opacity="0.5" fill-opacity="null" stroke-opacity="null" stroke-width="null" stroke="null" fill="null"/>
 </g>
</svg>
