<svg xmlns="http://www.w3.org/2000/svg"><rect id="backgroundrect" width="100%" height="100%" x="0" y="0" fill="none" stroke="none"/><g class="currentLayer"><title>Layer 1</title><g id="meat" transform="rotate(60, 64.0504, -29.0566)"><g id="Group_14" data-name="Group 14"><g id="Group_13" data-name="Group 13"><g id="Path_6" fill="#4bdb80" data-name="Path 6"><path id="svg_1" stroke="none" d="M93.23113250732422,38.41135507822037 C92.84166717529297,38.41135507822037 92.47795867919922,38.23716074228287 92.23326873779297,37.93338876962662 C91.79070281982422,37.38379770517349 91.87853240966797,36.57587534189224 92.42916107177734,36.13239389657974 L92.43144989013672,36.13056284189224 L92.43370819091797,36.12867075204849 C92.66436004638672,35.93378549814224 92.9574203491211,35.82645517587662 93.25890350341797,35.82645517587662 C93.63689422607422,35.82645517587662 93.99346160888672,35.99179941415787 94.23711395263672,36.28009897470474 C94.69249725341797,36.81903940439224 94.62459564208984,37.62799936532974 94.08574676513672,38.08341318368912 C94.06780242919922,38.09845834970474 94.04900360107422,38.11396127939224 94.03002166748047,38.12931162118912 C93.80098724365234,38.31369882822037 93.52458953857422,38.41135507822037 93.23113250732422,38.41135507822037 z"/><path id="svg_2" fill="#f4f4f4" stroke="none" d="M93.25890350341797,36.07645517587662 C93.01641082763672,36.07645517587662 92.78063201904297,36.16281992197037 92.59502410888672,36.31961923837662 L92.59056854248047,36.32340341806412 L92.58599090576172,36.32709604501724 C92.14269256591797,36.68412119150162 92.07183074951172,37.33435922861099 92.42797088623047,37.77655893564224 C92.62493133544922,38.02109628915787 92.91768646240234,38.16135507822037 93.23113250732422,38.16135507822037 C93.46691131591797,38.16135507822037 93.68914031982422,38.08280283212662 93.8727035522461,37.93500620126724 C93.89061737060547,37.92051035165787 93.90837860107422,37.90586191415787 93.92436981201172,37.89249521493912 C94.35796356201172,37.52604013681412 94.41259002685547,36.87510019540787 94.0461654663086,36.44147592782974 C93.85009002685547,36.20948129892349 93.56316375732422,36.07645517587662 93.25890350341797,36.07645517587662 M93.25890350341797,35.57645517587662 C93.6936264038086,35.57645517587662 94.12548065185547,35.76072031259537 94.42803192138672,36.11872202157974 C94.97338104248047,36.76407724618912 94.89226531982422,37.72910410165787 94.24712371826172,38.27436167001724 C94.22722625732422,38.29102426767349 94.20732879638672,38.30741220712662 94.18730926513672,38.32364755868912 C93.90489959716797,38.55097299814224 93.56682586669922,38.66135507822037 93.23113250732422,38.66135507822037 C92.78417205810547,38.66135507822037 92.34117889404297,38.46588999032974 92.03856658935547,38.09021860361099 C91.50872039794922,37.43229013681412 91.61443328857422,36.46756845712662 92.27233123779297,35.93769174814224 C92.55953216552734,35.69504648447037 92.91014862060547,35.57645517587662 93.25890350341797,35.57645517587662 z"/></g></g></g><g id="Group_16" data-name="Group 16"><g id="Group_15" data-name="Group 15"><g id="Path_7" fill="#4bdb80" data-name="Path 7"><path id="svg_3" stroke="none" d="M82.4760513305664,37.92557626962662 C82.07666778564453,37.92557626962662 81.67972564697266,37.87217050790787 81.29621124267578,37.76682382822037 C80.22577667236328,37.47336679697037 79.3080825805664,36.79444223642349 78.71207427978516,35.85514169931412 C78.52893829345703,35.56653696298599 78.46918487548828,35.22388559579849 78.54373931884766,34.89035898447037 C78.61832427978516,34.55677133798599 78.8183364868164,34.27225595712662 79.10697174072266,34.08911997079849 C79.31244659423828,33.95871835947037 79.54898834228516,33.88977915048599 79.7909927368164,33.88977915048599 C80.23246002197266,33.88977915048599 80.6369400024414,34.11191660165787 80.87296295166016,34.48401743173599 C81.1309585571289,34.89042001962662 81.51136016845703,35.17212778329849 81.97306060791016,35.29874521493912 C82.14154815673828,35.34479624032974 82.31354522705078,35.36811167001724 82.48444366455078,35.36811167001724 C82.84159088134766,35.36811167001724 83.19205474853516,35.26548105478287 83.49796295166016,35.07126718759537 C83.70340728759766,34.94098764657974 83.93994903564453,34.87207895517349 84.1819839477539,34.87207895517349 C84.62348175048828,34.87207895517349 85.0279312133789,35.09424692392349 85.26386260986328,35.46640878915787 C85.44696807861328,35.75513559579849 85.50672149658203,36.09778696298599 85.4321060180664,36.43137460947037 C85.35746002197266,36.76493173837662 85.15741729736328,37.04944711923599 84.86878204345703,37.23249155282974 C84.1541519165039,37.68592172861099 83.32678985595703,37.92557626962662 82.4760513305664,37.92557626962662 z"/><path id="svg_4" fill="#f4f4f4" stroke="none" d="M79.7909927368164,34.13977915048599 C79.59650421142578,34.13977915048599 79.40628814697266,34.19522958993912 79.24088287353516,34.30024057626724 C79.0086441040039,34.44757944345474 78.84772491455078,34.67649179697037 78.78772735595703,34.94489389657974 C78.72772979736328,35.21326547861099 78.77582550048828,35.48896127939224 78.92316436767578,35.72120004892349 C79.48578643798828,36.60788828134537 80.35196685791016,37.24872690439224 81.36243438720703,37.52573496103287 C81.72437286376953,37.62516123056412 82.09903717041016,37.67557626962662 82.4760513305664,37.67557626962662 C83.2792739868164,37.67557626962662 84.06034088134766,37.44937998056412 84.73487091064453,37.02137094736099 C84.96710968017578,36.87409311532974 85.12805938720703,36.64515024423599 85.18811798095703,36.37677866220474 C85.24817657470703,36.10837656259537 85.20011138916016,35.83261972665787 85.0527114868164,35.60028940439224 C84.86286163330078,35.30082041025162 84.53739166259766,35.12204843759537 84.18204498291016,35.12207895517349 C83.98743438720703,35.12210947275162 83.79715728759766,35.17755991220474 83.63196563720703,35.28232675790787 C83.28592681884766,35.50199228525162 82.8891372680664,35.61811167001724 82.48444366455078,35.61811167001724 C82.29126739501953,35.61811167001724 82.09711456298828,35.59183603525162 81.9069595336914,35.53983408212662 C81.38428497314453,35.39649301767349 80.95377349853516,35.07776743173599 80.66187286376953,34.61795908212662 C80.47193145751953,34.31852060556412 80.14636993408203,34.13977915048599 79.7909927368164,34.13977915048599 M79.7909927368164,33.63977915048599 C80.29737091064453,33.63977915048599 80.79279327392578,33.89093881845474 81.0840835571289,34.35010629892349 C81.30817413330078,34.70310312509537 81.6382827758789,34.94770151376724 82.03919219970703,35.05765634775162 C82.18717193603516,35.09809213876724 82.33658599853516,35.11814218759537 82.48444366455078,35.11814218759537 C82.79303741455078,35.11814218759537 83.09500885009766,35.03095346689224 83.36396026611328,34.86020761728287 C83.61808013916016,34.69904428720474 83.90177154541016,34.62210947275162 84.1819839477539,34.62207895517349 C84.68842315673828,34.62201792001724 85.1838150024414,34.87323862314224 85.47501373291016,35.33255869150162 C85.92749786376953,36.04596811532974 85.71610260009766,36.99115854501724 85.0026626586914,37.44361215829849 C84.24213409423828,37.92618662118912 83.36307525634766,38.17557626962662 82.4760513305664,38.17557626962662 C82.05860137939453,38.17557626962662 81.63935089111328,38.12033945322037 81.22998809814453,38.00788217782974 C80.09943389892578,37.69794565439224 79.13028717041016,36.98087412118912 78.50098419189453,35.98908334970474 C78.04840850830078,35.27579599618912 78.2596206665039,34.33063608407974 78.97303009033203,33.87802988290787 C79.22708892822266,33.71677500009537 79.51078033447266,33.63977915048599 79.7909927368164,33.63977915048599 z"/></g></g></g><g id="Group_18" data-name="Group 18"><g id="Group_17" data-name="Group 17"><g id="Path_8" fill="#4bdb80" data-name="Path 8"><path id="svg_5" stroke="none" d="M101.07556915283203,0.3463220000267029 C101.01923370361328,0.3463220000267029 100.96305084228516,0.3426598906517029 100.9085464477539,0.3354730010032654 C100.56912994384766,0.2912225127220154 100.2676773071289,0.11768430471420288 100.05927276611328,-0.15323549509048462 C99.85086822509766,-0.4241552948951721 99.7604751586914,-0.7599859833717346 99.80472564697266,-1.0988683104515076 L99.8174819946289,-1.1946019530296326 C99.90213775634766,-1.827307641506195 100.44608306884766,-2.3045567870140076 101.08267974853516,-2.3045567870140076 C101.13993072509766,-2.3045567870140076 101.1979751586914,-2.300635278224945 101.25516510009766,-2.2928990721702576 C101.59427642822266,-2.24756520986557 101.8951187133789,-2.0730199217796326 102.10257720947266,-1.801367700099945 C102.31000518798828,-1.52973073720932 102.3992691040039,-1.193579614162445 102.35388946533203,-0.8548193573951721 L102.3425064086914,-0.7683020234107971 C102.2596206665039,-0.13274294137954712 101.7149429321289,0.3463220000267029 101.07556915283203,0.3463220000267029 z"/><path id="svg_6" fill="#f4f4f4" stroke="none" d="M101.08267974853516,-2.0545567870140076 C100.57080841064453,-2.0545567870140076 100.1333999633789,-1.6705235838890076 100.0652847290039,-1.1616124510765076 L100.0525894165039,-1.066504418849945 C100.01700592041016,-0.7938452363014221 100.08975982666016,-0.5236425995826721 100.2574234008789,-0.3056707978248596 C100.4251480102539,-0.08768373727798462 100.6677017211914,0.05196470022201538 100.9412612915039,0.08762449026107788 C100.9849624633789,0.09339231252670288 101.0301284790039,0.09632200002670288 101.07556915283203,0.09632200002670288 C101.5898208618164,0.09632200002670288 102.02790069580078,-0.2891607880592346 102.09464263916016,-0.8009100556373596 L102.10611724853516,-0.8879919648170471 C102.14261627197266,-1.16059011220932 102.0707778930664,-1.431067407131195 101.90387725830078,-1.6496190428733826 C101.73697662353516,-1.8681859374046326 101.49494171142578,-2.0086278319358826 101.22171783447266,-2.0451573729515076 C101.17554473876953,-2.05139821767807 101.1287612915039,-2.0545567870140076 101.08267974853516,-2.0545567870140076 M101.08267974853516,-2.5545567870140076 C101.15067291259766,-2.5545567870140076 101.21942901611328,-2.5500096678733826 101.28864288330078,-2.54065603017807 C102.12613677978516,-2.428687036037445 102.71378326416016,-1.6588048338890076 102.6016616821289,-0.8216314911842346 L102.59037017822266,-0.7356787323951721 C102.4898452758789,0.03493589162826538 101.83228302001953,0.5963220000267029 101.07556915283203,0.5963220000267029 C101.00965118408203,0.5963220000267029 100.9429702758789,0.5921868681907654 100.87580108642578,0.5833215117454529 C100.03803253173828,0.4740990996360779 99.44742584228516,-0.2936010956764221 99.55680084228516,-1.1312474608421326 L99.56964874267578,-1.22760671377182 C99.67249298095703,-1.9959020018577576 100.32935333251953,-2.5545567870140076 101.08267974853516,-2.5545567870140076 z"/></g></g></g><g id="Group_20" data-name="Group 20"><g id="Group_19" data-name="Group 19"><g id="Path_9" fill="#4bdb80" data-name="Path 9"><path id="svg_7" stroke="none" d="M101.45136260986328,-4.450926721096039 C101.44062042236328,-4.450926721096039 101.42993927001953,-4.451079308986664 101.41913604736328,-4.451331079006195 C101.07776641845703,-4.459677636623383 100.75977325439453,-4.600600183010101 100.52399444580078,-4.848120629787445 C100.28821563720703,-5.095656335353851 100.16303253173828,-5.420126855373383 100.17139434814453,-5.761755883693695 C100.21631622314453,-7.608191430568695 100.14185333251953,-9.476096093654633 99.95014190673828,-11.313658654689789 C99.70458221435547,-13.747717797756195 101.48523712158203,-15.931296288967133 103.91962432861328,-16.180382668972015 C103.96350860595703,-16.184838235378265 104.00812530517578,-16.187111794948578 104.05200958251953,-16.187111794948578 C104.70948028564453,-16.187111794948578 105.25586700439453,-15.692946374416351 105.32300567626953,-15.037642419338226 C105.39496612548828,-14.335768640041351 104.88233184814453,-13.706221520900726 104.18024444580078,-13.634276330471039 C103.14752960205078,-13.528662621974945 102.39191436767578,-12.604765832424164 102.49591827392578,-11.574782311916351 C102.69879913330078,-9.630766808986664 102.77747344970703,-7.654257714748383 102.72980499267578,-5.699339807033539 C102.71302032470703,-5.010970056056976 102.13947296142578,-4.450926721096039 101.45136260986328,-4.450926721096039 z"/><path id="svg_8" fill="#f4f4f4" stroke="none" d="M104.05200958251953,-15.937109887599945 C104.01654815673828,-15.937109887599945 103.98041534423828,-15.935271203517914 103.94507598876953,-15.931677758693695 C101.64765167236328,-15.696608483791351 99.96717071533203,-13.635847985744476 100.19879913330078,-11.33960622549057 C100.39160919189453,-9.491476953029633 100.46649932861328,-7.612791955471039 100.42127227783203,-5.755637109279633 C100.41455841064453,-5.48078054189682 100.51532745361328,-5.219710290431976 100.70502471923828,-5.020537316799164 C100.89472198486328,-4.821371972560883 101.15064239501953,-4.707968652248383 101.42505645751953,-4.701262414455414 C101.43384552001953,-4.701048791408539 101.44257354736328,-4.700941979885101 101.45136260986328,-4.700941979885101 C102.00495147705078,-4.700941979885101 102.46637725830078,-5.151572167873383 102.47992706298828,-5.705428063869476 C102.52729034423828,-7.649695336818695 102.44904327392578,-9.615416467189789 102.24720001220703,-11.549651086330414 C102.12934112548828,-12.71662038564682 102.98511505126953,-13.763350427150726 104.15479278564453,-13.882979333400726 C104.71967315673828,-13.940855920314789 105.13220977783203,-14.447417199611664 105.07434844970703,-15.012160241603851 C105.02033233642578,-15.539465844631195 104.58081817626953,-15.937109887599945 104.05200958251953,-15.937109887599945 M104.05200958251953,-16.437111794948578 C104.82917022705078,-16.437111794948578 105.49103546142578,-15.850676476955414 105.57172393798828,-15.063132226467133 C105.65784454345703,-14.22260183095932 105.04615020751953,-13.471701562404633 104.20575714111328,-13.385580956935883 C103.31000518798828,-13.293967187404633 102.65473175048828,-12.490462243556976 102.74469757080078,-11.599898278713226 C102.94855499267578,-9.646101891994476 103.02765655517578,-7.658659875392914 102.97974395751953,-5.693251550197601 C102.95941925048828,-4.861441552639008 102.27887725830078,-4.200941979885101 101.45136260986328,-4.200941979885101 C101.43866729736328,-4.200941979885101 101.42597198486328,-4.201102197170258 101.41327667236328,-4.201399743556976 C100.56891632080078,-4.22205251455307 99.90076446533203,-4.923392236232758 99.92145538330078,-5.767882287502289 C99.96613311767578,-7.602827966213226 99.89240264892578,-9.458266198635101 99.70146942138672,-11.287711083889008 C99.4420394897461,-13.859465539455414 101.32288360595703,-16.165993630886078 103.89417266845703,-16.42907804250717 C103.94721221923828,-16.434472024440765 103.99988555908203,-16.437111794948578 104.05200958251953,-16.437111794948578 z"/></g></g></g><g id="Group_22" data-name="Group 22"><g id="Group_21" data-name="Group 21"><g id="Path_10" fill="#4bdb80" data-name="Path 10"><path id="svg_9" stroke="none" d="M72.50384521484375,49.01017862558365 C72.49266052246094,49.01017862558365 72.4813232421875,49.01004892587662 72.47012329101562,49.009789526462555 C72.06756591796875,48.99936777353287 71.68850708007812,48.79621225595474 71.45671081542969,48.46634775400162 L64.5328369140625,38.61461740732193 C64.31008911132812,38.29753214120865 64.2431640625,37.9015970826149 64.34927368164062,37.52838236093521 C64.45541381835938,37.155594885349274 64.72091674804688,36.854340612888336 65.07766723632812,36.701928198337555 L71.75274658203125,33.85241800546646 L71.90675354003906,33.78668314218521 L71.90457153320312,33.6192484498024 C71.88156127929688,31.84346491098404 72.30744934082031,30.07559496164322 73.13619995117188,28.50674730539322 C73.99072265625,26.88909822702408 75.26202392578125,25.514205038547516 76.81271362304688,24.53071504831314 C82.66659545898438,20.81933504343033 87.34814453125,15.578618109226227 90.35125732421875,9.375157415866852 C93.3695068359375,3.1407671570777893 94.58428955078125,-3.7955521941184998 93.8642578125,-10.683920800685883 C93.47830200195312,-14.45372098684311 95.1656494140625,-18.166773736476898 98.26788330078125,-20.373543679714203 L98.40164184570312,-20.46870321035385 L98.36749267578125,-20.629263818264008 L96.95718383789062,-27.260813653469086 C96.87641906738281,-27.64031308889389 96.97015380859375,-28.03080266714096 97.21435546875,-28.33219426870346 C97.45840454101562,-28.633723199367523 97.82083129882812,-28.806603372097015 98.20877075195312,-28.806603372097015 L110.32296752929688,-28.806603372097015 C110.71682739257812,-28.806603372097015 111.09567260742188,-28.620364129543304 111.33633422851562,-28.30840390920639 C111.57687377929688,-27.99649327993393 111.66073608398438,-27.582793176174164 111.56063842773438,-27.201813638210297 L109.91778564453125,-20.947932183742523 L109.87142944335938,-20.771353662014008 L110.02548217773438,-20.673422753810883 C112.7803955078125,-18.922383248806 114.5499267578125,-16.066492974758148 114.88034057617188,-12.838051736354828 C116.00723266601562,-2.0565118193626404 114.10525512695312,8.80122858285904 109.38009643554688,18.561907827854156 C106.626953125,24.249297201633453 103.00054931640625,29.417597830295563 98.60166931152344,33.92325693368912 C98.35894775390625,34.172082006931305 98.03382873535156,34.30909067392349 97.68612670898438,34.30912119150162 C97.35018920898438,34.30915170907974 97.03268432617188,34.179841101169586 96.79214477539062,33.945023596286774 C96.54757690429688,33.706261694431305 96.41061401367188,33.38652139902115 96.406494140625,33.044709265232086 C96.40238952636719,32.70292001962662 96.5316162109375,32.380028784275055 96.77035522460938,32.13552004098892 C100.9759521484375,27.82776552438736 104.44338989257812,22.885737478733063 107.07635498046875,17.44669634103775 C111.59371948242188,8.115246832370758 113.41195678710938,-2.2659711241722107 112.33453369140625,-12.574690759181976 C112.13180541992188,-14.555061280727386 111.20223999023438,-16.37967199087143 109.71713256835938,-17.711882531642914 C108.24237060546875,-19.0348042845726 106.34616088867188,-19.76337331533432 104.37774658203125,-19.76337331533432 C104.1055908203125,-19.76337331533432 103.82958984375,-19.74925321340561 103.557373046875,-19.721413552761078 C99.16696166992188,-19.271893441677094 95.9605712890625,-15.335901200771332 96.4097900390625,-10.94742101430893 C97.17929077148438,-3.586831033229828 95.88078308105469,3.8259974122047424 92.65469360351562,10.490220129489899 C89.44383239746094,17.12277513742447 84.43966674804688,22.72520738840103 78.18318176269531,26.69184786081314 C74.44859313964844,29.060748159885406 73.33734130859375,34.02619272470474 75.70594787597656,37.76065927743912 C76.77702331542969,39.44928842782974 78.4276123046875,40.670250952243805 80.35369873046875,41.19860941171646 C81.04315185546875,41.38787180185318 81.75637817382812,41.483841955661774 82.47348022460938,41.483841955661774 C84.00173950195312,41.483841955661774 85.48930358886719,41.0528421998024 86.77529907226562,40.23740488290787 C87.47103881835938,39.79638010263443 88.16825866699219,39.33208566904068 88.84762573242188,38.85746103525162 C89.06369018554688,38.706498205661774 89.31668090820312,38.62670999765396 89.57919311523438,38.62670999765396 C89.9976806640625,38.62670999765396 90.39031982421875,38.83111673593521 90.62950134277344,39.17351633310318 C90.82528686523438,39.4537211060524 90.90022277832031,39.79338175058365 90.84054565429688,40.12993723154068 C90.78085327148438,40.466507971286774 90.59367370605469,40.759667456150055 90.3134765625,40.955399572849274 C89.6029052734375,41.45185190439224 88.87355041503906,41.93753916025162 88.14566040039062,42.39898020029068 C86.44985961914062,43.47454172372818 84.48818969726562,44.04303079843521 82.47271728515625,44.04303079843521 C81.52621459960938,44.04303079843521 80.58560180664062,43.91643625497818 79.67623901367188,43.666779577732086 C79.1220703125,43.51464945077896 78.56781005859375,43.31095987558365 78.02883911132812,43.061356604099274 L77.84906005859375,42.97809702157974 L77.7269287109375,43.134110510349274 L73.51126098632812,48.519318640232086 C73.2672119140625,48.83129221200943 72.90003967285156,49.01017862558365 72.50384521484375,49.01017862558365 zM72.31025695800781,36.397370398044586 L72.05694580078125,36.505509436130524 L67.81912231445312,38.314599096775055 L67.5352783203125,38.43576914072037 L67.71273803710938,38.68827921152115 L72.36538696289062,45.308495581150055 L72.55911254882812,45.58414560556412 L72.76678466796875,45.31884866952896 L75.5450439453125,41.76966196298599 L75.69090270996094,41.583336889743805 L75.51287841796875,41.42746835947037 C74.74884033203125,40.7585306763649 74.08673095703125,39.986168920993805 73.54493713378906,39.131852209568024 C73.05645751953125,38.361771643161774 72.66902160644531,37.530121862888336 72.39341735839844,36.65995126962662 L72.31025695800781,36.397370398044586 zM99.78912353515625,-26.247353494167328 L99.85333251953125,-25.945362985134125 L100.70059204101562,-21.96067327260971 L100.75881958007812,-21.686823785305023 L101.02435302734375,-21.77555364370346 C101.76634216308594,-22.023493707180023 102.53091430664062,-22.18896383047104 103.29684448242188,-22.267363488674164 C103.65316772460938,-22.303843438625336 104.01470947265625,-22.32233327627182 104.37142944335938,-22.32233327627182 C105.34707641601562,-22.32233327627182 106.31954956054688,-22.185753762722015 107.26181030273438,-21.91638273000717 L107.50741577148438,-21.846173226833344 L107.57232666015625,-22.09323400259018 L108.581298828125,-25.933833062648773 L108.66366577148438,-26.247353494167328 L108.33950805664062,-26.247353494167328 L100.09786987304688,-26.247353494167328 L99.78912353515625,-26.247353494167328 z"/><path id="svg_10" fill="#f4f4f4" stroke="none" d="M72.50384521484375,48.76017862558365 C72.82260131835938,48.76017862558365 73.11801147460938,48.61626535654068 73.31442260742188,48.365204870700836 L77.53005981445312,42.979996740818024 L77.77432250976562,42.66797739267349 L78.13388061523438,42.834496557712555 C78.66036987304688,43.07830911874771 79.20155334472656,43.27721506357193 79.74240112304688,43.42569833993912 C80.63021850585938,43.66944223642349 81.548583984375,43.79303079843521 82.47271728515625,43.79303079843521 C84.44068908691406,43.79303079843521 86.35604858398438,43.23797708749771 88.01181030273438,42.187836706638336 C88.73654174804688,41.7283793091774 89.4627685546875,41.24479013681412 90.17030334472656,40.750451147556305 C90.395751953125,40.59296518564224 90.54635620117188,40.357087194919586 90.59439086914062,40.08628183603287 C90.64239501953125,39.81546884775162 90.58209228515625,39.54216867685318 90.424560546875,39.316681921482086 C90.23211669921875,39.04117685556412 89.91609191894531,38.87670999765396 89.57919311523438,38.87670999765396 C89.36814880371094,38.87670999765396 89.1646728515625,38.94091898202896 88.99079895019531,39.062401831150055 C88.30838012695312,39.539155066013336 87.60801696777344,40.00553995370865 86.9091796875,40.44854837656021 C85.58306884765625,41.289391577243805 84.04922485351562,41.733841955661774 82.47348022460938,41.733841955661774 C81.7340087890625,41.733841955661774 80.99851989746094,41.63486582040787 80.28756713867188,41.43970590829849 C78.30136108398438,40.89484506845474 76.59928894042969,39.635827124118805 75.49484252929688,37.894555151462555 C73.05239868164062,34.04367929697037 74.19827270507812,28.92347627878189 78.04931640625,26.480708181858063 C84.26646423339844,22.53900820016861 89.23910522460938,16.971915304660797 92.42967224121094,10.381287634372711 C95.63546752929688,3.7589998841285706 96.92581176757812,-3.6071709990501404 96.16108703613281,-10.921971261501312 C95.69784545898438,-15.447571694850922 99.00436401367188,-19.506552636623383 103.53195190429688,-19.970122277736664 C103.81259155273438,-19.998824059963226 104.09716796875,-20.01337331533432 104.37774658203125,-20.01337331533432 C106.40786743164062,-20.01337331533432 108.3634033203125,-19.262114465236664 109.88406372070312,-17.89798253774643 C111.41555786132812,-16.52416318655014 112.3741455078125,-14.642501771450043 112.58316040039062,-12.600682199001312 C113.66543579101562,-2.245631158351898 111.83905029296875,8.182248175144196 107.30136108398438,17.555625021457672 C104.65664672851562,23.018958151340485 101.1737060546875,27.983096182346344 96.94923400878906,32.31017976999283 C96.75714111328125,32.50689798593521 96.65316772460938,32.766694128513336 96.65647888183594,33.041710913181305 C96.6597900390625,33.316742956638336 96.76998901367188,33.57401376962662 96.966796875,33.766129553318024 C97.16033935546875,33.95508676767349 97.41580200195312,34.05914407968521 97.68609619140625,34.05912119150162 C97.96585083007812,34.05909067392349 98.22744750976562,33.948868811130524 98.42279052734375,33.748612463474274 C102.80282592773438,29.26226717233658 106.4136962890625,24.11607652902603 109.15505981445312,18.45297533273697 C113.85992431640625,8.734227240085602 115.75372314453125,-2.076861321926117 114.63165283203125,-12.812590539455414 C114.30908203125,-15.964432656764984 112.581298828125,-18.75269216299057 109.89138793945312,-20.46244329214096 L109.583251953125,-20.658303201198578 L109.676025390625,-21.01145452260971 L111.31884765625,-27.26533406972885 C111.39938354492188,-27.571883141994476 111.3319091796875,-27.904763162136078 111.13839721679688,-28.15569394826889 C110.94473266601562,-28.406733453273773 110.639892578125,-28.556603372097015 110.32296752929688,-28.556603372097015 L98.20877075195312,-28.556603372097015 C97.89663696289062,-28.556603372097015 97.60504150390625,-28.41751378774643 97.40859985351562,-28.174813210964203 C97.21214294433594,-27.932343423366547 97.13673400878906,-27.618184030056 97.20172119140625,-27.312823235988617 L98.61203002929688,-20.68127340078354 L98.68032836914062,-20.360144555568695 L98.41281127929688,-20.16983312368393 C95.38372802734375,-18.01510328054428 93.73614501953125,-14.389871537685394 94.11288452148438,-10.709912240505219 C94.8377685546875,-3.7752122282981873 93.61482238769531,3.207768499851227 90.57626342773438,9.48408991098404 C87.55287170410156,15.729477941989899 82.83978271484375,21.005538046360016 76.94660949707031,24.74183565378189 C75.43264770507812,25.702036917209625 74.19146728515625,27.044306814670563 73.35725402832031,28.623515188694 C72.5479736328125,30.155528128147125 72.132080078125,31.881894171237946 72.15457153320312,33.61601358652115 L72.15890502929688,33.95086008310318 L71.85092163085938,34.08233743906021 L65.17587280273438,36.93183237314224 C64.88877868652344,37.054474890232086 64.67510986328125,37.296906530857086 64.58973693847656,37.59674173593521 C64.50434875488281,37.89714151620865 64.55818176269531,38.215775549411774 64.73736572265625,38.47087198495865 L71.6612548828125,48.32260996103287 C71.84776306152344,48.58802133798599 72.15277099609375,48.751488745212555 72.47601318359375,48.759858191013336 C72.48526000976562,48.76007944345474 72.49461364746094,48.76017862558365 72.50384521484375,48.76017862558365 M72.46542358398438,36.0593119263649 L72.63174438476562,36.58446604013443 C72.90084838867188,37.4340677857399 73.27911376953125,38.24607187509537 73.75607299804688,38.997956335544586 C74.2850341796875,39.83207041025162 74.9315185546875,40.58619028329849 75.67755126953125,41.2393656373024 L76.03359985351562,41.551110327243805 L75.74191284179688,41.92376047372818 L72.96365356445312,45.47294718027115 L72.54830932617188,46.00354868173599 L72.16085815429688,45.45224863290787 L67.50819396972656,38.83203226327896 L67.15325927734375,38.32701975107193 L67.72096252441406,38.084679663181305 L71.95877075195312,36.275590002536774 L72.46542358398438,36.0593119263649 M99.48037719726562,-26.497353494167328 L100.09786987304688,-26.497353494167328 L108.33950805664062,-26.497353494167328 L108.98782348632812,-26.497353494167328 L108.82308959960938,-25.87031263113022 L107.81411743164062,-22.029713571071625 L107.684326171875,-21.53558248281479 L107.193115234375,-21.676012933254242 C106.27322387695312,-21.938994348049164 105.3238525390625,-22.07233327627182 104.37142944335938,-22.07233327627182 C104.02316284179688,-22.07233327627182 103.67019653320312,-22.05427449941635 103.32229614257812,-22.018664300441742 C102.57464599609375,-21.942133843898773 101.82815551757812,-21.780562341213226 101.10360717773438,-21.538443505764008 L100.572509765625,-21.360972344875336 L100.4560546875,-21.908673226833344 L99.60879516601562,-25.893362939357758 L99.48037719726562,-26.497353494167328 M72.50384521484375,49.26017862558365 C72.49069213867188,49.26017862558365 72.47738647460938,49.260026037693024 72.4642333984375,49.259720861911774 C71.98027038574219,49.24718576669693 71.53056335449219,49.006257116794586 71.25216674804688,48.61008554697037 L64.32829284667969,38.75837045907974 C64.06320190429688,38.381005346775055 63.982601165771484,37.90390878915787 64.10879516601562,37.46001535654068 C64.23515319824219,37.01628214120865 64.55514526367188,36.65329843759537 64.97946166992188,36.4720316529274 L71.65460205078125,33.62249094247818 C71.60748291015625,29.986105978488922 73.388427734375,26.40646654367447 76.67880249023438,24.319598257541656 C82.4935302734375,20.633036673069 87.14344787597656,15.427720129489899 90.126220703125,9.26622873544693 C93.12429809570312,3.073529303073883 94.33087158203125,-3.815152108669281 93.6156005859375,-10.65793126821518 C93.2052001953125,-14.666480958461761 95.05255126953125,-18.39311307668686 98.12297058105469,-20.57726377248764 L96.712646484375,-27.20881360769272 C96.61659240722656,-27.66020292043686 96.72947692871094,-28.1308736205101 97.02011108398438,-28.489573419094086 C97.3104248046875,-28.848263680934906 97.74716186523438,-29.056603372097015 98.20877075195312,-29.056603372097015 L110.32296752929688,-29.056603372097015 C110.79730224609375,-29.056603372097015 111.24456787109375,-28.836644113063812 111.53427124023438,-28.46111387014389 C111.8238525390625,-28.085593163967133 111.92294311523438,-27.597033441066742 111.80242919921875,-27.138293206691742 L110.15960693359375,-20.8844136595726 C112.85879516601562,-19.168784081935883 114.77908325195312,-16.28299230337143 115.12905883789062,-12.863501489162445 C116.26068115234375,-2.036341607570648 114.35064697265625,8.86806970834732 109.6051025390625,18.67083650827408 C106.84030151367188,24.382308065891266 103.19842529296875,29.57279497385025 98.78054809570312,34.09790140390396 C98.48098754882812,34.404999792575836 98.08369445800781,34.55908304452896 97.68614196777344,34.559113562107086 C97.30072021484375,34.55915170907974 96.91506958007812,34.414399206638336 96.61750793457031,34.12391000986099 C96.01300048828125,33.533783972263336 96.00137329101562,32.565209448337555 96.59149169921875,31.960858404636383 C100.778564453125,27.672087728977203 104.23028564453125,22.75218492746353 106.851318359375,17.33776766061783 C111.34841918945312,8.048188269138336 113.15859985351562,-2.2852105498313904 112.08587646484375,-12.548701226711273 C111.6778564453125,-16.53471463918686 108.30145263671875,-19.513371407985687 104.37774658203125,-19.513371407985687 C104.11480712890625,-19.513371407985687 103.84996032714844,-19.500035226345062 103.58282470703125,-19.472712457180023 C99.32952880859375,-19.037234246730804 96.22344970703125,-15.222801148891449 96.65849304199219,-10.972882211208344 C97.43280029296875,-3.566271722316742 96.12603759765625,3.893109381198883 92.87969970703125,10.59914880990982 C89.64852905273438,17.273676931858063 84.61282348632812,22.91142565011978 78.31704711914062,26.90298753976822 C74.69886779785156,29.19804674386978 73.622314453125,34.00872904062271 75.91706848144531,37.62675577402115 C76.95462036132812,39.262536108493805 78.55352783203125,40.44555002450943 80.41983032226562,40.95752054452896 C81.09426879882812,41.142655432224274 81.78538513183594,41.233841955661774 82.47348022460938,41.233841955661774 C83.93603515625,41.233841955661774 85.38607788085938,40.82225900888443 86.64143371582031,40.026276648044586 C87.33251953125,39.58818918466568 88.02682495117188,39.125939428806305 88.70443725585938,38.65252023935318 C88.97111511230469,38.466218054294586 89.2767333984375,38.37670236825943 89.57920837402344,38.37670236825943 C90.06198120117188,38.37670236825943 90.5369873046875,38.604523718357086 90.83444213867188,39.030350744724274 C91.31826782226562,39.722802221775055 91.14926147460938,40.676529943943024 90.45663452148438,41.16034799814224 C89.74136352539062,41.66008096933365 89.00869750976562,42.14786630868912 88.27951049804688,42.610131323337555 C86.53074645996094,43.719269812107086 84.51069641113281,44.29303079843521 82.47271728515625,44.29303079843521 C82.47247314453125,44.29303079843521 82.47222900390625,44.29303079843521 82.47196960449219,44.29303079843521 C81.51321411132812,44.29303079843521 80.55000305175781,44.165917456150055 79.61004638671875,43.907860815525055 C79.02725219726562,43.74786478281021 78.46450805664062,43.53862100839615 77.92378234863281,43.28820902109146 L73.7081298828125,48.673417150974274 C73.41795349121094,49.04435068368912 72.97329711914062,49.26017862558365 72.50384521484375,49.26017862558365 zM72.15509033203125,36.735436499118805 L67.91726684570312,38.544526159763336 L72.56993103027344,45.164750158786774 L75.34819030761719,41.615555822849274 C74.57510375976562,40.93869882822037 73.8948974609375,40.150475561618805 73.33383178710938,39.26574045419693 C72.8214111328125,38.45794779062271 72.43118286132812,37.60717111825943 72.15509033203125,36.735436499118805 zM100.09786987304688,-25.997353494167328 L100.94512939453125,-22.012663781642914 C101.685791015625,-22.260163247585297 102.46298217773438,-22.433314263820648 103.27137756347656,-22.516062676906586 C103.64082336425781,-22.553885400295258 104.00784301757812,-22.572337090969086 104.37142944335938,-22.572337090969086 C105.3916015625,-22.572337090969086 106.38497924804688,-22.427071511745453 107.33053588867188,-22.1567525267601 L108.33950805664062,-25.997353494167328 L100.09786987304688,-25.997353494167328 z"/></g></g></g></g></g></svg>