<svg xmlns="http://www.w3.org/2000/svg" width="86" height="36" viewBox="0 0 93.522 83.668">
  <g id="meat" transform="translate(67.824) rotate(60)">
    <g id="Group_14" data-name="Group 14" transform="translate(27.651 64.633)">
      <g id="Group_13" data-name="Group 13">
        <g id="Path_6" data-name="Path 6" transform="translate(-223.041 -422.541)" fill="#4bdb80">
          <path d="M 224.5707092285156 425.3759460449219 C 224.1812438964844 425.3759460449219 223.8175354003906 425.2017517089844 223.5728607177734 424.8979797363281 C 223.1302795410156 424.348388671875 223.2181396484375 423.5404663085938 223.7687530517578 423.0969848632812 L 223.7710418701172 423.0951538085938 L 223.7733001708984 423.09326171875 C 224.0039520263672 422.8983764648438 224.2970123291016 422.7910461425781 224.5984954833984 422.7910461425781 C 224.9764862060547 422.7910461425781 225.3330383300781 422.9563903808594 225.5767059326172 423.2446899414062 C 226.0320892333984 423.7836303710938 225.9641876220703 424.5925903320312 225.4253387451172 425.0480041503906 C 225.4073791503906 425.0630493164062 225.3885803222656 425.0785522460938 225.3695983886719 425.0939025878906 C 225.1405792236328 425.2782897949219 224.8641662597656 425.3759460449219 224.5707092285156 425.3759460449219 Z" stroke="none"/>
          <path d="M 224.5984954833984 423.0410461425781 C 224.3560028076172 423.0410461425781 224.1202392578125 423.1274108886719 223.9346313476562 423.2842102050781 L 223.9301452636719 423.2879943847656 L 223.9255676269531 423.2916870117188 C 223.4822998046875 423.6487121582031 223.4114379882812 424.2989501953125 223.7675476074219 424.7411499023438 C 223.9645385742188 424.9856872558594 224.2572784423828 425.1259460449219 224.5707092285156 425.1259460449219 C 224.8065032958984 425.1259460449219 225.0287170410156 425.0473937988281 225.2122955322266 424.8995971679688 C 225.2302093505859 424.8851013183594 225.2479553222656 424.8704528808594 225.2639465332031 424.8570861816406 C 225.6975402832031 424.4906311035156 225.7521667480469 423.8396911621094 225.3857574462891 423.4060668945312 C 225.189697265625 423.174072265625 224.9027557373047 423.0410461425781 224.5984954833984 423.0410461425781 M 224.5984954833984 422.5410461425781 C 225.0332183837891 422.5410461425781 225.4650573730469 422.7253112792969 225.7676391601562 423.0833129882812 C 226.3129577636719 423.7286682128906 226.2318725585938 424.6936950683594 225.5867004394531 425.2389526367188 C 225.5668029785156 425.255615234375 225.5469360351562 425.2720031738281 225.5268859863281 425.2882385253906 C 225.2445068359375 425.5155639648438 224.9064331054688 425.6259460449219 224.5707092285156 425.6259460449219 C 224.1237487792969 425.6259460449219 223.6807861328125 425.4304809570312 223.378173828125 425.0548095703125 C 222.8483276367188 424.3968811035156 222.9540405273438 423.4321594238281 223.6119384765625 422.9022827148438 C 223.8991241455078 422.6596374511719 224.2497406005859 422.5410461425781 224.5984954833984 422.5410461425781 Z" stroke="none" fill="#f4f4f4"/>
        </g>
      </g>
    </g>
    <g id="Group_16" data-name="Group 16" transform="translate(14.212 62.696)">
      <g id="Group_15" data-name="Group 15">
        <g id="Path_7" data-name="Path 7" transform="translate(-282.381 -409.877)" fill="#4bdb80">
          <path d="M 286.5946350097656 414.1632080078125 C 286.1952514648438 414.1632080078125 285.7983093261719 414.1098022460938 285.414794921875 414.0044555664062 C 284.3443603515625 413.7109985351562 283.4266662597656 413.0320739746094 282.8306579589844 412.0927734375 C 282.6475219726562 411.8041687011719 282.5877685546875 411.4615173339844 282.6623229980469 411.1279907226562 C 282.7369079589844 410.7944030761719 282.9369201660156 410.5098876953125 283.2255554199219 410.3267517089844 C 283.4310302734375 410.1963500976562 283.6675720214844 410.1274108886719 283.9095764160156 410.1274108886719 C 284.3510437011719 410.1274108886719 284.7555236816406 410.3495483398438 284.9915466308594 410.7216491699219 C 285.2495422363281 411.1280517578125 285.6299438476562 411.4097595214844 286.0916442871094 411.536376953125 C 286.2601318359375 411.5824279785156 286.43212890625 411.6057434082031 286.60302734375 411.6057434082031 C 286.9601745605469 411.6057434082031 287.3106384277344 411.5031127929688 287.6165466308594 411.3088989257812 C 287.8219909667969 411.1786193847656 288.0585327148438 411.1097106933594 288.3005676269531 411.1097106933594 C 288.7420654296875 411.1097106933594 289.1465148925781 411.3318786621094 289.3824462890625 411.7040405273438 C 289.5655517578125 411.9927673339844 289.6253051757812 412.3354187011719 289.5506896972656 412.6690063476562 C 289.4760437011719 413.0025634765625 289.2760009765625 413.2870788574219 288.9873657226562 413.4701232910156 C 288.2727355957031 413.9235534667969 287.4453735351562 414.1632080078125 286.5946350097656 414.1632080078125 Z" stroke="none"/>
          <path d="M 283.9095764160156 410.3774108886719 C 283.715087890625 410.3774108886719 283.5248718261719 410.432861328125 283.3594665527344 410.5378723144531 C 283.1272277832031 410.6852111816406 282.96630859375 410.9141235351562 282.9063110351562 411.1825256347656 C 282.8463134765625 411.4508972167969 282.8944091796875 411.7265930175781 283.041748046875 411.9588317871094 C 283.6043701171875 412.8455200195312 284.4705505371094 413.4863586425781 285.4810180664062 413.7633666992188 C 285.8429565429688 413.86279296875 286.2176208496094 413.9132080078125 286.5946350097656 413.9132080078125 C 287.3978576660156 413.9132080078125 288.1789245605469 413.68701171875 288.8534545898438 413.2590026855469 C 289.085693359375 413.1117248535156 289.2466430664062 412.8827819824219 289.3067016601562 412.6144104003906 C 289.3667602539062 412.3460083007812 289.3186950683594 412.0702514648438 289.1712951660156 411.8379211425781 C 288.9814453125 411.5384521484375 288.6559753417969 411.3596801757812 288.3006286621094 411.3597106933594 C 288.1060180664062 411.3597412109375 287.9157409667969 411.4151916503906 287.7505493164062 411.5199584960938 C 287.4045104980469 411.7396240234375 287.0077209472656 411.8557434082031 286.60302734375 411.8557434082031 C 286.4098510742188 411.8557434082031 286.2156982421875 411.8294677734375 286.0255432128906 411.7774658203125 C 285.5028686523438 411.6341247558594 285.0723571777344 411.3153991699219 284.7804565429688 410.8555908203125 C 284.5905151367188 410.55615234375 284.2649536132812 410.3774108886719 283.9095764160156 410.3774108886719 M 283.9095764160156 409.8774108886719 C 284.4159545898438 409.8774108886719 284.911376953125 410.1285705566406 285.2026672363281 410.5877380371094 C 285.4267578125 410.9407348632812 285.7568664550781 411.1853332519531 286.1577758789062 411.2952880859375 C 286.3057556152344 411.3357238769531 286.4551696777344 411.3557739257812 286.60302734375 411.3557739257812 C 286.91162109375 411.3557739257812 287.2135925292969 411.2685852050781 287.4825439453125 411.0978393554688 C 287.7366638183594 410.9366760253906 288.0203552246094 410.8597412109375 288.3005676269531 410.8597106933594 C 288.8070068359375 410.8596496582031 289.3023986816406 411.1108703613281 289.5935974121094 411.5701904296875 C 290.0460815429688 412.2835998535156 289.8346862792969 413.2287902832031 289.1212463378906 413.6812438964844 C 288.3607177734375 414.163818359375 287.4816589355469 414.4132080078125 286.5946350097656 414.4132080078125 C 286.1771850585938 414.4132080078125 285.7579345703125 414.3579711914062 285.3485717773438 414.2455139160156 C 284.218017578125 413.9355773925781 283.2488708496094 413.218505859375 282.6195678710938 412.2267150878906 C 282.1669921875 411.513427734375 282.3782043457031 410.5682678222656 283.0916137695312 410.1156616210938 C 283.3456726074219 409.9544067382812 283.6293640136719 409.8774108886719 283.9095764160156 409.8774108886719 Z" stroke="none" fill="#f4f4f4"/>
        </g>
      </g>
    </g>
    <g id="Group_18" data-name="Group 18" transform="translate(35.493 26.502)">
      <g id="Group_17" data-name="Group 17">
        <g id="Path_8" data-name="Path 8" transform="translate(-171.88 -173.259)" fill="#4bdb80">
          <path d="M 173.4121551513672 176.1599273681641 C 173.3558197021484 176.1599273681641 173.2996215820312 176.1562652587891 173.2451171875 176.1490783691406 C 172.9057312011719 176.1048278808594 172.6042785644531 175.9312896728516 172.3958587646484 175.6603698730469 C 172.1874542236328 175.3894500732422 172.0970458984375 175.0536193847656 172.1413116455078 174.7147369384766 L 172.154052734375 174.6190032958984 C 172.2387390136719 173.9862976074219 172.7826843261719 173.5090484619141 173.4192810058594 173.5090484619141 C 173.4765319824219 173.5090484619141 173.5345458984375 173.5129699707031 173.5917510986328 173.5207061767578 C 173.9308776855469 173.5660400390625 174.231689453125 173.7405853271484 174.4391479492188 174.0122375488281 C 174.6465911865234 174.2838745117188 174.73583984375 174.6200256347656 174.6904754638672 174.9587860107422 L 174.6790924072266 175.0453033447266 C 174.59619140625 175.6808624267578 174.0515441894531 176.1599273681641 173.4121551513672 176.1599273681641 Z" stroke="none"/>
          <path d="M 173.4192810058594 173.7590484619141 C 172.9073944091797 173.7590484619141 172.4699859619141 174.1430816650391 172.4018707275391 174.6519927978516 L 172.3891906738281 174.7471008300781 C 172.3535919189453 175.0197601318359 172.4263305664062 175.2899627685547 172.5940093994141 175.5079345703125 C 172.76171875 175.7259216308594 173.0042724609375 175.8655700683594 173.2778625488281 175.9012298583984 C 173.321533203125 175.9069976806641 173.3667297363281 175.9099273681641 173.4121551513672 175.9099273681641 C 173.9264068603516 175.9099273681641 174.3644866943359 175.5244445800781 174.4312286376953 175.0126953125 L 174.4426879882812 174.9256134033203 C 174.4791870117188 174.6530151367188 174.4073638916016 174.3825378417969 174.2404632568359 174.1639862060547 C 174.0735626220703 173.9454193115234 173.8315277099609 173.8049774169922 173.5582885742188 173.7684478759766 C 173.5121307373047 173.76220703125 173.4653625488281 173.7590484619141 173.4192810058594 173.7590484619141 M 173.4192810058594 173.2590484619141 C 173.4872589111328 173.2590484619141 173.5560150146484 173.2635955810547 173.6252288818359 173.27294921875 C 174.4627075195312 173.3849182128906 175.0503692626953 174.1548004150391 174.9382629394531 174.9919738769531 L 174.9269561767578 175.0779266357422 C 174.8264465332031 175.8485412597656 174.1688690185547 176.4099273681641 173.4121551513672 176.4099273681641 C 173.3462371826172 176.4099273681641 173.279541015625 176.4057922363281 173.2123870849609 176.3969268798828 C 172.3746185302734 176.2877044677734 171.7840270996094 175.5200042724609 171.8934020996094 174.6823577880859 L 171.9062347412109 174.5859985351562 C 172.0090789794922 173.8177032470703 172.6659393310547 173.2590484619141 173.4192810058594 173.2590484619141 Z" stroke="none" fill="#f4f4f4"/>
        </g>
      </g>
    </g>
    <g id="Group_20" data-name="Group 20" transform="translate(35.627 12.619)">
      <g id="Group_19" data-name="Group 19">
        <g id="Path_9" data-name="Path 9" transform="translate(-152.499 -82.499)" fill="#4bdb80">
          <path d="M 154.2729339599609 94.48567199707031 C 154.26220703125 94.48567199707031 154.2514953613281 94.48551940917969 154.2407379150391 94.48526763916016 C 153.8993225097656 94.47692108154297 153.5813446044922 94.33599853515625 153.3455963134766 94.08847808837891 C 153.1098175048828 93.8409423828125 152.9845886230469 93.51647186279297 152.9929656982422 93.17484283447266 C 153.0378875732422 91.32840728759766 152.9634552001953 89.46050262451172 152.7717132568359 87.62294006347656 C 152.5261688232422 85.18888092041016 154.3068389892578 83.00530242919922 156.7412109375 82.75621795654297 C 156.7850952148438 82.75176239013672 156.8296813964844 82.74948883056641 156.8735961914062 82.74948883056641 C 157.5310363769531 82.74948883056641 158.0774536132812 83.24365234375 158.1446075439453 83.89895629882812 C 158.2165374755859 84.600830078125 157.7038879394531 85.23037719726562 157.0018463134766 85.30232238769531 C 155.9691009521484 85.40793609619141 155.2134857177734 86.33183288574219 155.3175201416016 87.36181640625 C 155.5203857421875 89.30583190917969 155.5990447998047 91.28234100341797 155.5514068603516 93.23725891113281 C 155.5345764160156 93.92562866210938 154.9610595703125 94.48567199707031 154.2729339599609 94.48567199707031 Z" stroke="none"/>
          <path d="M 156.8735961914062 82.99948883056641 C 156.8381042480469 82.99948883056641 156.8020172119141 83.00132751464844 156.7666473388672 83.00492095947266 C 154.4692230224609 83.239990234375 152.7887268066406 85.30075073242188 153.0203552246094 87.59699249267578 C 153.2132110595703 89.44512176513672 153.2880859375 91.32380676269531 153.2428741455078 93.18096160888672 C 153.2361450195312 93.45581817626953 153.3369140625 93.71688842773438 153.5266265869141 93.91606140136719 C 153.7163238525391 94.11522674560547 153.9721984863281 94.22863006591797 154.2466430664062 94.23533630371094 C 154.2554168701172 94.23554992675781 154.2641754150391 94.23565673828125 154.2729339599609 94.23565673828125 C 154.8265380859375 94.23565673828125 155.2879486083984 93.78502655029297 155.3014984130859 93.23117065429688 C 155.3488616943359 91.28690338134766 155.2706298828125 89.32118225097656 155.0687866210938 87.38694763183594 C 154.9509124755859 86.21997833251953 155.8067016601562 85.17324829101562 156.9763641357422 85.05361938476562 C 157.5412750244141 84.99574279785156 157.9537811279297 84.48918151855469 157.8959197998047 83.9244384765625 C 157.8418884277344 83.39713287353516 157.4023742675781 82.99948883056641 156.8735961914062 82.99948883056641 M 156.8735809326172 82.49948883056641 C 157.6507720947266 82.49948883056641 158.3126068115234 83.08592224121094 158.393310546875 83.87346649169922 C 158.4794311523438 84.71399688720703 157.8677215576172 85.46489715576172 157.02734375 85.55101776123047 C 156.131591796875 85.64263153076172 155.4763031005859 86.44613647460938 155.5662536621094 87.33670043945312 C 155.7701416015625 89.29049682617188 155.8492279052734 91.27793884277344 155.8013458251953 93.24334716796875 C 155.781005859375 94.07515716552734 155.1004791259766 94.73565673828125 154.2729339599609 94.73565673828125 C 154.26025390625 94.73565673828125 154.2475738525391 94.73549652099609 154.2348480224609 94.73519897460938 C 153.3905181884766 94.71454620361328 152.7223510742188 94.01320648193359 152.7430267333984 93.16871643066406 C 152.7876892089844 91.33377075195312 152.7139587402344 89.47833251953125 152.5230560302734 87.64888763427734 C 152.2636260986328 85.07713317871094 154.1444396972656 82.77060699462891 156.7157592773438 82.50752258300781 C 156.768798828125 82.50212860107422 156.8214569091797 82.49948883056641 156.8735809326172 82.49948883056641 Z" stroke="none" fill="#f4f4f4"/>
        </g>
      </g>
    </g>
    <g id="Group_22" data-name="Group 22">
      <g id="Group_21" data-name="Group 21">
        <g id="Path_10" data-name="Path 10" transform="translate(-87.999)" fill="#4bdb80">
          <path d="M 96.45243835449219 78.06678009033203 C 96.44124603271484 78.06678009033203 96.42991638183594 78.066650390625 96.41871643066406 78.06639099121094 C 96.01615905761719 78.05596923828125 95.6370849609375 77.85281372070312 95.40529632568359 77.52294921875 L 88.48141479492188 67.67121887207031 C 88.25867462158203 67.35413360595703 88.19175720214844 66.95819854736328 88.29785919189453 66.58498382568359 C 88.40400695800781 66.21219635009766 88.66950988769531 65.91094207763672 89.02625274658203 65.75852966308594 L 95.70133972167969 62.90901947021484 L 95.85533905029297 62.84328079223633 L 95.85316467285156 62.67584991455078 C 95.83015441894531 60.90007019042969 96.25603485107422 59.13219833374023 97.08478546142578 57.56335067749023 C 97.93930816650391 55.94570159912109 99.21061706542969 54.57080841064453 100.7612991333008 53.58731842041016 C 106.6151733398438 49.87593841552734 111.2967376708984 44.63521957397461 114.2998352050781 38.43175888061523 C 117.3180999755859 32.19736862182617 118.5328674316406 25.26104927062988 117.8128356933594 18.3726806640625 C 117.426887512207 14.60288047790527 119.1142349243164 10.88982963562012 122.2164688110352 8.683059692382812 L 122.3502349853516 8.587900161743164 L 122.3160858154297 8.427340507507324 L 120.9057693481445 1.795790076255798 C 120.8250045776367 1.416290044784546 120.9187469482422 1.025799989700317 121.1629333496094 0.7244100570678711 C 121.406982421875 0.4228800535202026 121.769416809082 0.2500000596046448 122.157356262207 0.2500000596046448 L 134.2715454101562 0.2500000596046448 C 134.6654205322266 0.2500000596046448 135.0442504882812 0.4362400472164154 135.2849273681641 0.7482000589370728 C 135.5254516601562 1.060110092163086 135.6093139648438 1.473810076713562 135.5092315673828 1.854790091514587 L 133.8663787841797 8.108670234680176 L 133.8200073242188 8.285249710083008 L 133.9740753173828 8.383179664611816 C 136.7289886474609 10.13422012329102 138.4985198974609 12.99011039733887 138.8289337158203 16.21854972839355 C 139.955810546875 27.00008964538574 138.0538330078125 37.85783004760742 133.3286743164062 47.61851119995117 C 130.5755310058594 53.30590057373047 126.9491424560547 58.47420120239258 122.5502548217773 62.9798583984375 C 122.3075332641602 63.22867965698242 121.9824142456055 63.36568832397461 121.6347045898438 63.36571884155273 C 121.2987670898438 63.36574935913086 120.9812774658203 63.2364387512207 120.7407379150391 63.00162124633789 C 120.4961547851562 62.76285934448242 120.3591995239258 62.44311904907227 120.3550872802734 62.10131072998047 C 120.3509750366211 61.759521484375 120.4801940917969 61.43663024902344 120.7189483642578 61.19211959838867 C 124.9245452880859 56.88436889648438 128.3919830322266 51.94234085083008 131.0249328613281 46.50329971313477 C 135.5423126220703 37.17184829711914 137.3605499267578 26.79063034057617 136.2831115722656 16.48191070556641 C 136.0803985595703 14.501540184021 135.1508331298828 12.67693042755127 133.6657257080078 11.34471988677979 C 132.1909637451172 10.02180004119873 130.2947387695312 9.293230056762695 128.3263244628906 9.293230056762695 C 128.0541687011719 9.293230056762695 127.7781677246094 9.307350158691406 127.5059661865234 9.335189819335938 C 123.1155471801758 9.784709930419922 119.9091644287109 13.72070026397705 120.3583755493164 18.10918045043945 C 121.1278762817383 25.46977043151855 119.8293685913086 32.88259887695312 116.6032791137695 39.54682159423828 C 113.3924179077148 46.17937850952148 108.3882446289062 51.78181076049805 102.1317672729492 55.74845123291016 C 98.39717864990234 58.11735153198242 97.28592681884766 63.08279037475586 99.65453338623047 66.8172607421875 C 100.7256088256836 68.50588989257812 102.3761978149414 69.72685241699219 104.3022766113281 70.25521087646484 C 104.9917449951172 70.44447326660156 105.7049560546875 70.54044342041016 106.4220657348633 70.54044342041016 C 107.9503326416016 70.54044342041016 109.4378890991211 70.10944366455078 110.7238845825195 69.29400634765625 C 111.4196166992188 68.85298156738281 112.1168441772461 68.38868713378906 112.7962036132812 67.9140625 C 113.0122833251953 67.76309967041016 113.265266418457 67.68331146240234 113.5277862548828 67.68331146240234 C 113.9462738037109 67.68331146240234 114.3389053344727 67.88771820068359 114.5780868530273 68.23011779785156 C 114.7738647460938 68.51032257080078 114.8488082885742 68.84998321533203 114.7891235351562 69.18653869628906 C 114.7294464111328 69.52310943603516 114.5422592163086 69.81626892089844 114.2620544433594 70.01200103759766 C 113.5514831542969 70.50845336914062 112.822135925293 70.994140625 112.09423828125 71.45558166503906 C 110.3984375 72.53114318847656 108.4367752075195 73.09963226318359 106.4213027954102 73.09963226318359 C 105.4748077392578 73.09963226318359 104.5341796875 72.97303771972656 103.6248168945312 72.72338104248047 C 103.0706558227539 72.57125091552734 102.5163955688477 72.36756134033203 101.977424621582 72.11795806884766 L 101.7976379394531 72.03469848632812 L 101.6755065917969 72.19071197509766 L 97.45985412597656 77.57592010498047 C 97.21580505371094 77.88789367675781 96.84862518310547 78.06678009033203 96.45243835449219 78.06678009033203 Z M 96.25884246826172 65.45397186279297 L 96.00552368164062 65.56211090087891 L 91.76770782470703 67.37120056152344 L 91.48385620117188 67.49237060546875 L 91.66131591796875 67.74488067626953 L 96.31397247314453 74.36509704589844 L 96.50770568847656 74.6407470703125 L 96.71537780761719 74.37545013427734 L 99.49363708496094 70.82626342773438 L 99.63948822021484 70.63993835449219 L 99.46145629882812 70.48406982421875 C 98.69742584228516 69.81513214111328 98.03531646728516 69.04277038574219 97.49352264404297 68.18845367431641 C 97.00503540039062 67.41837310791016 96.61760711669922 66.58672332763672 96.34200286865234 65.716552734375 L 96.25884246826172 65.45397186279297 Z M 123.7377090454102 2.809250116348267 L 123.8019256591797 3.111240148544312 L 124.6491851806641 7.095930099487305 L 124.7074127197266 7.36978006362915 L 124.9729461669922 7.281050205230713 C 125.7149276733398 7.03311014175415 126.4794998168945 6.867640018463135 127.2454299926758 6.789239883422852 C 127.6017532348633 6.75275993347168 127.9633026123047 6.734270095825195 128.3200225830078 6.734270095825195 C 129.2956695556641 6.734270095825195 130.2681427001953 6.870850086212158 131.2104034423828 7.140220165252686 L 131.4560089111328 7.210430145263672 L 131.5209197998047 6.963369846343994 L 132.5298919677734 3.122770071029663 L 132.6122436523438 2.809250116348267 L 132.2880859375 2.809250116348267 L 124.0464553833008 2.809250116348267 L 123.7377090454102 2.809250116348267 Z" stroke="none"/>
          <path d="M 96.45243835449219 77.81678009033203 C 96.77119445800781 77.81678009033203 97.06660461425781 77.67286682128906 97.26300811767578 77.42180633544922 L 101.4786529541016 72.03659820556641 L 101.7229080200195 71.72457885742188 L 102.0824737548828 71.89109802246094 C 102.6089553833008 72.13491058349609 103.1501388549805 72.33381652832031 103.6909942626953 72.4822998046875 C 104.5788040161133 72.72604370117188 105.4971694946289 72.84963226318359 106.4213027954102 72.84963226318359 C 108.389274597168 72.84963226318359 110.3046340942383 72.29457855224609 111.9603881835938 71.24443817138672 C 112.6851348876953 70.78498077392578 113.4113464355469 70.3013916015625 114.1188888549805 69.80705261230469 C 114.3443374633789 69.64956665039062 114.4949493408203 69.41368865966797 114.54296875 69.14288330078125 C 114.5909881591797 68.8720703125 114.5306854248047 68.59877014160156 114.3731384277344 68.37328338623047 C 114.1806945800781 68.0977783203125 113.8646774291992 67.93331146240234 113.5277862548828 67.93331146240234 C 113.3167343139648 67.93331146240234 113.1132659912109 67.99752044677734 112.9393844604492 68.11900329589844 C 112.2569732666016 68.59575653076172 111.5566024780273 69.06214141845703 110.8577651977539 69.50514984130859 C 109.5316543579102 70.34599304199219 107.9978179931641 70.79044342041016 106.4220657348633 70.79044342041016 C 105.6825866699219 70.79044342041016 104.9471054077148 70.69146728515625 104.2361450195312 70.49630737304688 C 102.2499542236328 69.95144653320312 100.5478744506836 68.69242858886719 99.44342803955078 66.95115661621094 C 97.0009765625 63.10028076171875 98.14686584472656 57.98007965087891 101.9978942871094 55.53731155395508 C 108.2150497436523 51.59561157226562 113.1876983642578 46.02851867675781 116.3782577514648 39.43788909912109 C 119.5840454101562 32.81560134887695 120.8743896484375 25.44943046569824 120.1096725463867 18.13463020324707 C 119.6464233398438 13.60902976989746 122.9529571533203 9.550049781799316 127.4805374145508 9.086480140686035 C 127.7611846923828 9.057780265808105 128.0457458496094 9.043230056762695 128.3263244628906 9.043230056762695 C 130.3564453125 9.043230056762695 132.3119812011719 9.794489860534668 133.8326568603516 11.15861988067627 C 135.3641510009766 12.53244018554688 136.3227386474609 14.41409969329834 136.5317535400391 16.45591926574707 C 137.6140289306641 26.81097030639648 135.7876281738281 37.23884963989258 131.2499542236328 46.61222839355469 C 128.6052398681641 52.0755615234375 125.1222839355469 57.03969955444336 120.897819519043 61.36677932739258 C 120.7057266235352 61.56349945068359 120.6017532348633 61.82329177856445 120.6050643920898 62.09830856323242 C 120.6083679199219 62.37334060668945 120.7185745239258 62.63061141967773 120.9153747558594 62.82273101806641 C 121.1089248657227 63.01168823242188 121.364387512207 63.11574172973633 121.6346740722656 63.11571884155273 C 121.9144439697266 63.11568832397461 122.176025390625 63.00547027587891 122.3713684082031 62.80521011352539 C 126.7514038085938 58.31887054443359 130.3622741699219 53.17267990112305 133.1036529541016 47.50957870483398 C 137.8085021972656 37.79082870483398 139.7023162841797 26.97974014282227 138.5802307128906 16.24401092529297 C 138.2576599121094 13.09216976165771 136.5298919677734 10.30391025543213 133.8399810791016 8.594160079956055 L 133.5318298339844 8.398300170898438 L 133.6246032714844 8.045149803161621 L 135.2674407958984 1.791270017623901 C 135.3479614257812 1.48471999168396 135.2804870605469 1.151840090751648 135.0869903564453 0.9009100198745728 C 134.893310546875 0.6498700380325317 134.5884704589844 0.5000000596046448 134.2715454101562 0.5000000596046448 L 122.157356262207 0.5000000596046448 C 121.84521484375 0.5000000596046448 121.5536193847656 0.6390900611877441 121.357177734375 0.8817900419235229 C 121.1607284545898 1.124260067939758 121.085319519043 1.438420057296753 121.1502990722656 1.743780016899109 L 122.5606155395508 8.375329971313477 L 122.6289138793945 8.696459770202637 L 122.3613891601562 8.886770248413086 C 119.3323135375977 11.04150009155273 117.6847229003906 14.66672992706299 118.0614776611328 18.34668922424316 C 118.7863540649414 25.2813892364502 117.5634078979492 32.26436996459961 114.5248565673828 38.54069137573242 C 111.5014572143555 44.78607940673828 106.7883758544922 50.06214141845703 100.8951950073242 53.79843902587891 C 99.3812255859375 54.75864028930664 98.14004516601562 56.10091018676758 97.30583953857422 57.68011856079102 C 96.49655914306641 59.21213150024414 96.08067321777344 60.93849945068359 96.1031494140625 62.67261123657227 L 96.10748291015625 63.00746154785156 L 95.79949951171875 63.13893890380859 L 89.12446594238281 65.98843383789062 C 88.83736419677734 66.11107635498047 88.62370300292969 66.35350799560547 88.53832244873047 66.65334320068359 C 88.45293426513672 66.95374298095703 88.50676727294922 67.27237701416016 88.68595886230469 67.52747344970703 L 95.60983276367188 77.37921142578125 C 95.79634857177734 77.64462280273438 96.10136413574219 77.80809020996094 96.42460632324219 77.81645965576172 C 96.43384552001953 77.81668090820312 96.44319915771484 77.81678009033203 96.45243835449219 77.81678009033203 M 96.41400909423828 65.11591339111328 L 96.58033752441406 65.64106750488281 C 96.84942626953125 66.49066925048828 97.22769927978516 67.30267333984375 97.70465850830078 68.05455780029297 C 98.23362731933594 68.888671875 98.88010406494141 69.64279174804688 99.62614440917969 70.29596710205078 L 99.98219299316406 70.60771179199219 L 99.69049835205078 70.98036193847656 L 96.91223907470703 74.52954864501953 L 96.49688720703125 75.06015014648438 L 96.10943603515625 74.50885009765625 L 91.45677947998047 67.88863372802734 L 91.10185241699219 67.38362121582031 L 91.66954803466797 67.14128112792969 L 95.90736389160156 65.33219146728516 L 96.41400909423828 65.11591339111328 M 123.4289627075195 2.559250116348267 L 124.0464553833008 2.559250116348267 L 132.2880859375 2.559250116348267 L 132.9364013671875 2.559250116348267 L 132.7716827392578 3.18629002571106 L 131.7627105712891 7.026890277862549 L 131.6329040527344 7.52101993560791 L 131.1416931152344 7.380589962005615 C 130.2218017578125 7.117609977722168 129.2724456787109 6.984270095825195 128.3200225830078 6.984270095825195 C 127.9717559814453 6.984270095825195 127.6187744140625 7.00232982635498 127.2708892822266 7.03794002532959 C 126.5232238769531 7.1144700050354 125.7767486572266 7.276040077209473 125.0521850585938 7.518159866333008 L 124.5211029052734 7.695630073547363 L 124.4046478271484 7.147930145263672 L 123.5573883056641 3.1632399559021 L 123.4289627075195 2.559250116348267 M 96.45243835449219 78.31678009033203 C 96.43928527832031 78.31678009033203 96.42597961425781 78.31662750244141 96.41282653808594 78.31632232666016 C 95.92885589599609 78.30378723144531 95.47914886474609 78.06285858154297 95.20074462890625 77.66668701171875 L 88.27687835693359 67.81497192382812 C 88.01179504394531 67.43760681152344 87.93119812011719 66.96051025390625 88.05738830566406 66.51661682128906 C 88.18373870849609 66.07288360595703 88.50372314453125 65.70989990234375 88.92803955078125 65.52863311767578 L 95.60318756103516 62.6790885925293 C 95.55606842041016 59.04270935058594 97.33701324462891 55.46306991577148 100.6273956298828 53.37620162963867 C 106.4421234130859 49.68964004516602 111.0920333862305 44.48432159423828 114.0748138427734 38.32283020019531 C 117.072883605957 32.13013076782227 118.2794570922852 25.2414493560791 117.5641860961914 18.3986701965332 C 117.1537933349609 14.39012050628662 119.0011291503906 10.66349029541016 122.0715560913086 8.479339599609375 L 120.6612396240234 1.847790002822876 C 120.5651779174805 1.396400094032288 120.6780624389648 0.9257300496101379 120.9686889648438 0.5670300722122192 C 121.2590026855469 0.208340048789978 121.6957397460938 4.516601137538601e-08 122.157356262207 4.516601137538601e-08 L 134.2715454101562 4.516601137538601e-08 C 134.7458953857422 4.516601137538601e-08 135.1931457519531 0.2199600487947464 135.4828643798828 0.595490038394928 C 135.7724304199219 0.9710100293159485 135.8715362548828 1.459570050239563 135.7510223388672 1.918310046195984 L 134.1081848144531 8.172189712524414 C 136.807373046875 9.887820243835449 138.7276611328125 12.77361011505127 139.07763671875 16.19309997558594 C 140.2092742919922 27.02025985717773 138.2992248535156 37.9246711730957 133.5536956787109 47.72743988037109 C 130.7888946533203 53.43891143798828 127.1470184326172 58.62939834594727 122.729133605957 63.15449905395508 C 122.4295806884766 63.46159744262695 122.0322799682617 63.61568450927734 121.6347274780273 63.61571502685547 C 121.2493133544922 63.61574935913086 120.8636627197266 63.47099685668945 120.5660934448242 63.18051147460938 C 119.9615859985352 62.59038162231445 119.9499588012695 61.62181091308594 120.5400772094727 61.01745986938477 C 124.7271499633789 56.72869110107422 128.1788787841797 51.80878829956055 130.7999114990234 46.39437103271484 C 135.2970123291016 37.10478973388672 137.107177734375 26.77139091491699 136.0344543457031 16.50790023803711 C 135.6264495849609 12.52188873291016 132.2500457763672 9.543231964111328 128.3263244628906 9.543231964111328 C 128.0633850097656 9.543231964111328 127.7985458374023 9.556568145751953 127.5314025878906 9.583889961242676 C 123.2781143188477 10.01937007904053 120.1720428466797 13.83380031585693 120.6070785522461 18.08371925354004 C 121.3813858032227 25.49032974243164 120.0746231079102 32.94971084594727 116.8282928466797 39.6557502746582 C 113.5971145629883 46.33028030395508 108.5614166259766 51.9680290222168 102.265625 55.95959091186523 C 98.64745330810547 58.2546501159668 97.57089996337891 63.06533050537109 99.86565399169922 66.68335723876953 C 100.9031982421875 68.31913757324219 102.5021057128906 69.50215148925781 104.3684158325195 70.01412200927734 C 105.042854309082 70.19925689697266 105.7339706420898 70.29044342041016 106.4220657348633 70.29044342041016 C 107.8846206665039 70.29044342041016 109.3346710205078 69.87886047363281 110.5900192260742 69.08287811279297 C 111.2810974121094 68.64479064941406 111.9754028320312 68.18254089355469 112.6530227661133 67.70912170410156 C 112.9197006225586 67.52281951904297 113.2253112792969 67.43330383300781 113.5277938842773 67.43330383300781 C 114.0105743408203 67.43330383300781 114.4855728149414 67.66112518310547 114.7830352783203 68.08695220947266 C 115.266845703125 68.77940368652344 115.0978393554688 69.73313140869141 114.4052124023438 70.21694946289062 C 113.6899566650391 70.71668243408203 112.957275390625 71.2044677734375 112.2280960083008 71.66673278808594 C 110.4793319702148 72.77587127685547 108.4592819213867 73.34963226318359 106.4213027954102 73.34963226318359 C 106.4210510253906 73.34963226318359 106.4208068847656 73.34963226318359 106.4205551147461 73.34963226318359 C 105.461799621582 73.34963226318359 104.4985885620117 73.22251892089844 103.5586242675781 72.96446228027344 C 102.9758377075195 72.80446624755859 102.4130859375 72.59522247314453 101.8723678588867 72.34481048583984 L 97.65671539306641 77.73001861572266 C 97.36653900146484 78.1009521484375 96.92188262939453 78.31678009033203 96.45243835449219 78.31678009033203 Z M 96.10367584228516 65.79203796386719 L 91.86585998535156 67.60112762451172 L 96.51851654052734 74.22135162353516 L 99.29677581787109 70.67215728759766 C 98.52369689941406 69.99530029296875 97.84348297119141 69.20707702636719 97.28240966796875 68.32234191894531 C 96.76998901367188 67.51454925537109 96.37977600097656 66.66377258300781 96.10367584228516 65.79203796386719 Z M 124.0464553833008 3.059250116348267 L 124.8937149047852 7.04394006729126 C 125.6343765258789 6.796440124511719 126.4115676879883 6.623290061950684 127.2199630737305 6.540540218353271 C 127.5894088745117 6.502718925476074 127.9564208984375 6.484265327453613 128.3200073242188 6.484265327453613 C 129.3401794433594 6.484265327453613 130.3335571289062 6.629532337188721 131.2791290283203 6.899849891662598 L 132.2880859375 3.059250116348267 L 124.0464553833008 3.059250116348267 Z" stroke="none" fill="#f4f4f4"/>
        </g>
      </g>
    </g>
  </g>
</svg>
