<svg xmlns="http://www.w3.org/2000/svg" xmlns:xlink="http://www.w3.org/1999/xlink" width="38" height="38" viewBox="0 0 37.649 37.646">
  <defs>
    <linearGradient id="linear-gradient" x1="0.5" x2="0.5" y2="1" gradientUnits="objectBoundingBox">
      <stop offset="0" stop-color="#4bdba4"/>
      <stop offset="1" stop-color="#4bdb80"/>
    </linearGradient>
  </defs>
  <g id="soy" transform="translate(0 -0.5)">
    <path d="M369.646,369.821l-.016.016a.735.735,0,0,0,1.04,1.04l.022-.022a.735.735,0,1,0-1.046-1.034Zm0,0" transform="translate(-342.25 -341.962)" fill="url(#linear-gradient)"/>
    <path d="M86.044,54.7a.735.735,0,0,0-1.2.2C84.333,56,83.28,56.344,81.6,56.809a8.354,8.354,0,0,0-4.126,2.065,10.681,10.681,0,0,0-2.414,4.494,7.554,7.554,0,0,1-.844,2.013c-.354.509-.836.677-1.727.952a8.586,8.586,0,0,0-3.8,2.1l0,0-.089.09-.091.089h0a11.279,11.279,0,0,0-2.364,4,4.282,4.282,0,0,1-1.219,2.054,7.558,7.558,0,0,1-2.013.844,10.681,10.681,0,0,0-4.494,2.414,8.354,8.354,0,0,0-2.065,4.126c-.465,1.677-.806,2.731-1.914,3.24a.735.735,0,0,0-.2,1.2A6.727,6.727,0,0,0,59,88.144a13.872,13.872,0,0,0,5.347-1.16A13.371,13.371,0,0,0,68.4,84.168a15.664,15.664,0,0,1,1.783-1.517,5.117,5.117,0,0,1,2.022-.628,11.759,11.759,0,0,0,3.731-1.185.735.735,0,1,0-.7-1.293,10.361,10.361,0,0,1-3.295,1.031,6.269,6.269,0,0,0-2.612.877A17.074,17.074,0,0,0,67.385,83.1a11.969,11.969,0,0,1-3.66,2.549c-1.293.6-5.184,1.785-7.7.348a7.007,7.007,0,0,0,1.748-3.553A7.12,7.12,0,0,1,59.434,79a9.18,9.18,0,0,1,3.93-2.082,8.7,8.7,0,0,0,2.406-1.037,5.412,5.412,0,0,0,1.749-2.724,9.827,9.827,0,0,1,2.122-3.591,7.215,7.215,0,0,1,3.283-1.822,4.144,4.144,0,0,0,2.5-1.518,8.706,8.706,0,0,0,1.037-2.406,9.18,9.18,0,0,1,2.082-3.93,7.117,7.117,0,0,1,3.449-1.657,7.011,7.011,0,0,0,3.553-1.748c1.437,2.512.252,6.4-.348,7.7a11.969,11.969,0,0,1-2.549,3.66A17.044,17.044,0,0,0,81,69.775a6.265,6.265,0,0,0-.877,2.612A10.384,10.384,0,0,1,79.1,75.673a.735.735,0,1,0,1.294.7,11.78,11.78,0,0,0,1.18-3.722,5.112,5.112,0,0,1,.628-2.022,15.635,15.635,0,0,1,1.517-1.783,13.374,13.374,0,0,0,2.816-4.052C87.364,63,88.893,57.7,86.044,54.7Zm0,0" transform="translate(-50.045 -49.999)" fill="url(#linear-gradient)"/>
    <path d="M256.425,291.1a.735.735,0,0,0-1.04,0,3.727,3.727,0,0,0,0,5.264.735.735,0,1,0,1.04-1.04,2.255,2.255,0,0,1,0-3.185A.735.735,0,0,0,256.425,291.1Zm0,0" transform="translate(-235.597 -269.034)" fill="url(#linear-gradient)"/>
    <path d="M124.089,407.079a.735.735,0,0,0-1.04,0,2.862,2.862,0,0,0,0,4.047.735.735,0,1,0,1.04-1.04,1.393,1.393,0,0,1,0-1.967A.735.735,0,0,0,124.089,407.079Zm0,0" transform="translate(-113.224 -376.482)" fill="url(#linear-gradient)"/>
    <path d="M386.21,154.38a.735.735,0,0,0-1.04,0,2.583,2.583,0,0,0,0,3.653.735.735,0,0,0,1.04-1.04,1.112,1.112,0,0,1,0-1.573A.735.735,0,0,0,386.21,154.38Zm0,0" transform="translate(-356.147 -142.365)" fill="url(#linear-gradient)"/>
    <path d="M8.7,203.9a4.227,4.227,0,0,0-4.349-4.084,4.092,4.092,0,1,0,0,8.167A4.227,4.227,0,0,0,8.7,203.9Zm-7.226,0a2.675,2.675,0,0,1,2.143-2.526v.2a.735.735,0,0,0,1.471,0v-.2A2.675,2.675,0,0,1,7.227,203.9a2.758,2.758,0,0,1-2.878,2.613A2.758,2.758,0,0,1,1.471,203.9Zm0,0" transform="translate(0 -184.66)" fill="url(#linear-gradient)"/>
    <path d="M155.233,67.887a4.474,4.474,0,0,0,3.154-1.328,4.092,4.092,0,1,0-5.963.187A3.939,3.939,0,0,0,155.233,67.887Zm2.3-6.251a2.892,2.892,0,0,1-4.07,4.07,2.676,2.676,0,0,1-.271-3.3l.138.138a.735.735,0,0,0,1.04-1.04l-.138-.138a2.943,2.943,0,0,1,1.532-.441A2.476,2.476,0,0,1,157.534,61.636Zm0,0" transform="translate(-140.159 -54.62)" fill="url(#linear-gradient)"/>
    <path d="M3.983,8.932A4.473,4.473,0,0,0,7.137,7.6a4.227,4.227,0,0,0,.187-5.963,4.227,4.227,0,0,0-5.963.188,4.227,4.227,0,0,0-.187,5.963A3.94,3.94,0,0,0,3.983,8.932ZM2.4,2.868a3.005,3.005,0,0,1,2.008-.9l.107,0a2.468,2.468,0,0,1,1.768.713,2.675,2.675,0,0,1,.271,3.3l-.138-.138a.735.735,0,0,0-1.04,1.04l.139.139a2.932,2.932,0,0,1-1.427.439,2.478,2.478,0,0,1-1.875-.711A2.758,2.758,0,0,1,2.4,2.868Zm0,0" transform="translate(-0.031 0)" fill="url(#linear-gradient)"/>
  </g>
</svg>
